<svg width="40" height="40" viewBox="0 0 40 40" fill="none" xmlns="http://www.w3.org/2000/svg">
<g clip-path="url(#clip0_370_10449)">
<path d="M16.4841 12.1091C7.43774 12.1091 8.2273e-05 18.33 8.2273e-05 25.9768C8.2273e-05 29.0334 1.18571 32.1399 3.36 34.5476L0.289614 38.0563C-0.0124959 38.4019 -0.0857771 38.8929 0.105395 39.3117C0.295395 39.7305 0.711957 39.9995 1.17196 39.9995H17.6559C24.3352 39.9995 32.9681 34.248 32.9681 25.9768C32.9681 18.33 25.5304 12.1091 16.4841 12.1091ZM9.37485 28.1248C8.08282 28.1248 7.03118 27.073 7.03118 25.7811C7.03118 24.4891 8.0829 23.4374 9.37485 23.4374C10.6668 23.4374 11.7185 24.4891 11.7185 25.7811C11.7186 27.073 10.6669 28.1248 9.37485 28.1248ZM16.4841 28.1248C15.192 28.1248 14.1404 27.073 14.1404 25.7811C14.1404 24.4891 15.1921 23.4374 16.4841 23.4374C17.776 23.4374 18.8277 24.4891 18.8277 25.7811C18.8277 27.073 17.7761 28.1248 16.4841 28.1248ZM23.5933 28.1248C22.3013 28.1248 21.2496 27.073 21.2496 25.7811C21.2496 24.4891 22.3013 23.4374 23.5933 23.4374C24.8852 23.4374 25.937 24.4891 25.937 25.7811C25.937 27.073 24.8853 28.1248 23.5933 28.1248Z" fill="url(#paint0_linear_370_10449)"/>
<path d="M39.7178 23.846L36.9587 20.6268C38.9282 18.4045 40.0005 15.6945 40.0005 12.8908C40.0005 5.78307 33.1662 0.000488281 24.7665 0.000488281C17.1708 0.000488281 10.7176 4.734 9.57812 10.895C11.6975 10.1749 14.0743 9.76549 16.4855 9.76549C26.7474 9.76549 35.1785 16.9331 35.3017 25.7811H38.8287C39.8297 25.7812 40.3673 24.6024 39.7178 23.846Z" fill="url(#paint1_linear_370_10449)"/>
</g>
<defs>
<linearGradient id="paint0_linear_370_10449" x1="35.8645" y1="12.1091" x2="-5.11491" y2="16.0499" gradientUnits="userSpaceOnUse">
<stop stop-color="#E21D1D"/>
<stop offset="1" stop-color="#F2F2F2"/>
</linearGradient>
<linearGradient id="paint1_linear_370_10449" x1="42.6743" y1="0.000496642" x2="4.85688" y2="3.6311" gradientUnits="userSpaceOnUse">
<stop stop-color="#E21D1D"/>
<stop offset="1" stop-color="#F2F2F2"/>
</linearGradient>
<clipPath id="clip0_370_10449">
<rect width="40" height="40" fill="white"/>
</clipPath>
</defs>
</svg>
