<svg width="40" height="40" viewBox="0 0 40 40" fill="none" xmlns="http://www.w3.org/2000/svg">
<g clip-path="url(#clip0_370_10468)">
<path d="M25.1562 5.15625C19.836 5.15625 15.1614 7.97031 12.5403 12.1875H4.45312C4.02164 12.1875 3.67188 12.5373 3.67188 12.9688C3.67188 13.4002 4.02164 13.75 4.45312 13.75H11.6945C10.8084 15.6507 10.3125 17.7684 10.3125 20C10.3125 20.5277 10.3407 21.0489 10.3947 21.5625H0.78125C0.349766 21.5625 0 21.9123 0 22.3438C0 22.7752 0.349766 23.125 0.78125 23.125H10.6445C10.8792 24.2157 11.234 25.2622 11.6945 26.25H5.9375C5.50602 26.25 5.15625 26.5998 5.15625 27.0312C5.15625 27.4627 5.50602 27.8125 5.9375 27.8125H12.5403C15.1614 32.0297 19.836 34.8438 25.1562 34.8438C33.3412 34.8438 40 28.1848 40 20C40 11.8152 33.3412 5.15625 25.1562 5.15625ZM11.875 20C11.875 17.7418 12.4422 15.6139 13.4405 13.75H17.1505C15.8032 15.4734 15 17.6428 15 20C15 20.5314 15.041 21.0531 15.1196 21.5625H11.9673C11.907 21.0498 11.875 20.5286 11.875 20ZM25.1562 33.2812C18.9091 33.2812 13.6564 28.9453 12.2473 23.125H15.4907C16.8088 27.2049 20.6376 30.1562 25.1563 30.1562C30.7655 30.1562 35.3126 25.6091 35.3126 20C35.3126 14.3909 30.7655 9.84375 25.1563 9.84375C22.674 9.84375 20.4001 10.7348 18.6358 12.2138C18.5723 12.1973 18.5061 12.1875 18.4375 12.1875H14.423C16.8404 8.87531 20.7509 6.71875 25.1562 6.71875C32.4795 6.71875 38.4375 12.6767 38.4375 20C38.4375 27.3233 32.4795 33.2812 25.1562 33.2812ZM30.3962 24.1351C30.7013 24.4402 30.7013 24.9348 30.3962 25.24C30.2436 25.3925 30.0438 25.4688 29.8438 25.4688C29.6437 25.4688 29.4439 25.3925 29.2913 25.2399L24.6038 20.5524C24.4573 20.4059 24.375 20.2072 24.375 20V13.75C24.375 13.3185 24.7248 12.9688 25.1562 12.9688C25.5877 12.9688 25.9375 13.3185 25.9375 13.75V19.6764L30.3962 24.1351Z" fill="url(#paint0_linear_370_10468)"/>
<path d="M2.89062 18.4375H8.28125C8.71273 18.4375 9.0625 18.0877 9.0625 17.6562C9.0625 17.2248 8.71273 16.875 8.28125 16.875H2.89062C2.45914 16.875 2.10938 17.2248 2.10938 17.6562C2.10938 18.0877 2.45914 18.4375 2.89062 18.4375Z" fill="url(#paint1_linear_370_10468)"/>
</g>
<defs>
<linearGradient id="paint0_linear_370_10468" x1="43.5143" y1="5.15626" x2="-6.06994" y2="10.5913" gradientUnits="userSpaceOnUse">
<stop stop-color="#E21D1D"/>
<stop offset="1" stop-color="#F2F2F2"/>
</linearGradient>
<linearGradient id="paint1_linear_370_10468" x1="9.67338" y1="16.875" x2="1.96142" y2="19.6669" gradientUnits="userSpaceOnUse">
<stop stop-color="#E21D1D"/>
<stop offset="1" stop-color="#F2F2F2"/>
</linearGradient>
<clipPath id="clip0_370_10468">
<rect width="40" height="40" fill="white"/>
</clipPath>
</defs>
</svg>
