<svg width="40" height="40" viewBox="0 0 40 40" fill="none" xmlns="http://www.w3.org/2000/svg">
<g clip-path="url(#clip0_380_13335)">
<path fill-rule="evenodd" clip-rule="evenodd" d="M39.375 37.7041H36.5902V15.7861C36.5902 15.6204 36.5243 15.4614 36.4071 15.3442C36.2899 15.227 36.1309 15.1611 35.9652 15.1611H30.157C29.9913 15.1611 29.8323 15.227 29.7151 15.3442C29.5979 15.4614 29.532 15.6204 29.532 15.7861V37.7041H27.8828V20.6414C27.8828 20.4757 27.817 20.3167 27.6998 20.1995C27.5825 20.0823 27.4236 20.0164 27.2578 20.0164H21.4495C21.2838 20.0164 21.1248 20.0823 21.0076 20.1995C20.8904 20.3167 20.8245 20.4757 20.8245 20.6414V37.7039H19.1753V25.496C19.1753 25.3302 19.1095 25.1712 18.9923 25.054C18.875 24.9368 18.7161 24.871 18.5503 24.871H12.7422C12.5764 24.871 12.4175 24.9368 12.3002 25.054C12.183 25.1712 12.1172 25.3302 12.1172 25.496V37.7041H10.468V30.351C10.468 30.1852 10.4021 30.0262 10.2849 29.909C10.1677 29.7918 10.0087 29.726 9.84297 29.726H4.03492C3.86916 29.726 3.71019 29.7918 3.59298 29.909C3.47577 30.0262 3.40992 30.1852 3.40992 30.351V37.7041H0.625C0.45924 37.7041 0.300269 37.7699 0.183058 37.8871C0.065848 38.0044 0 38.1633 0 38.3291C0 38.4949 0.065848 38.6538 0.183058 38.771C0.300269 38.8882 0.45924 38.9541 0.625 38.9541H39.375C39.5408 38.9541 39.6997 38.8882 39.8169 38.771C39.9342 38.6538 40 38.4949 40 38.3291C40 38.1633 39.9342 38.0044 39.8169 37.8871C39.6997 37.7699 39.5408 37.7041 39.375 37.7041ZM5.98078 23.7835C5.82346 23.783 5.6721 23.7233 5.5569 23.6161C5.44171 23.509 5.37115 23.3624 5.35932 23.2055C5.34748 23.0486 5.39524 22.893 5.49306 22.7698C5.59088 22.6466 5.73156 22.5648 5.88703 22.5408C14.2914 21.2606 22.0227 15.5687 27.171 6.89323L24.1866 4.63237C24.0936 4.5619 24.0221 4.46679 23.9804 4.3578C23.9386 4.24881 23.9282 4.13031 23.9503 4.01571C23.9724 3.90111 24.0262 3.79499 24.1055 3.70937C24.1848 3.62376 24.2866 3.56206 24.3991 3.53128L33.4259 1.0676C33.5182 1.04239 33.6151 1.03872 33.7091 1.05688C33.803 1.07504 33.8916 1.11454 33.9679 1.17233C34.0442 1.23012 34.1062 1.30467 34.1491 1.39021C34.192 1.47576 34.2147 1.57002 34.2155 1.66573L34.2879 11.0222C34.2888 11.1389 34.257 11.2536 34.1961 11.3532C34.1352 11.4527 34.0476 11.5333 33.9433 11.5856C33.8389 11.638 33.722 11.6601 33.6058 11.6494C33.4895 11.6388 33.3786 11.5957 33.2855 11.5253L31.0794 9.85401C28.1128 13.6963 24.4454 16.9421 20.271 19.4198C15.6477 22.1498 10.712 23.6589 5.99758 23.7835H5.98078Z" fill="url(#paint0_linear_380_13335)"/>
</g>
<defs>
<linearGradient id="paint0_linear_380_13335" x1="43.5143" y1="1.04554" x2="-6.29863" y2="5.32156" gradientUnits="userSpaceOnUse">
<stop stop-color="#E21D1D"/>
<stop offset="1" stop-color="#F2F2F2"/>
</linearGradient>
<clipPath id="clip0_380_13335">
<rect width="40" height="40" fill="white"/>
</clipPath>
</defs>
</svg>
