<svg width="40" height="40" viewBox="0 0 40 40" fill="none" xmlns="http://www.w3.org/2000/svg">
<g clip-path="url(#clip0_370_10475)">
<path d="M15.6952 27.23L14.075 27.4042L12.9027 27.5301L12.0321 27.6238L11.7305 27.6558V40.0001L16.2727 38.6262V37.4015V36.1769V27.7528L15.6952 27.23Z" fill="url(#paint0_linear_370_10475)"/>
<path d="M19.9997 31.1242L18.6172 29.8745V35.4679V36.6926V37.9172L19.9997 37.4991L21.3822 37.9172V36.6926V35.4679V29.8745L19.9997 31.1242Z" fill="url(#paint1_linear_370_10475)"/>
<path d="M27.9671 27.6238L27.0965 27.5301L25.9242 27.4042L24.3041 27.23L23.7266 27.7528V36.1769V37.4015V38.6262L28.2687 40.0001V27.6558L27.9671 27.6238Z" fill="url(#paint2_linear_370_10475)"/>
<path d="M20.0015 7.5542C16.4573 7.5542 13.5742 10.4372 13.5742 13.9815C13.5742 17.5257 16.4573 20.4087 20.0015 20.4087C23.5457 20.4087 26.4288 17.5257 26.4288 13.9815C26.4288 10.4372 23.5457 7.5542 20.0015 7.5542Z" fill="url(#paint3_linear_370_10475)"/>
<path d="M33.2969 9.66117L29.1916 7.30328L28.2178 2.67039L23.5107 3.17602L20 0L16.4894 3.17609L11.7823 2.67047L10.8085 7.30336L6.70312 9.66117L8.63898 13.9814L6.70312 18.3017L10.8084 20.6596L11.7306 25.0471L11.7822 25.2925L12.9029 25.1721L14.0752 25.0463L16.4893 24.7868L17.22 25.448L18.6173 26.7125L20 27.963L21.3825 26.7125L22.7798 25.448L23.5105 24.7868L25.9247 25.0463L27.097 25.1721L28.2177 25.2925L28.2692 25.0471L29.1914 20.6596L33.2967 18.3017L31.3609 13.9815L33.2969 9.66117ZM20 22.7533C15.1631 22.7533 11.2282 18.8183 11.2282 13.9815C11.2282 9.14469 15.1631 5.20961 20 5.20961C24.8369 5.20961 28.7718 9.14461 28.7718 13.9814C28.7718 18.8182 24.8369 22.7533 20 22.7533Z" fill="url(#paint4_linear_370_10475)"/>
</g>
<defs>
<linearGradient id="paint0_linear_370_10475" x1="16.6717" y1="27.23" x2="10.9783" y2="27.3947" gradientUnits="userSpaceOnUse">
<stop stop-color="#E21D1D"/>
<stop offset="1" stop-color="#F2F2F2"/>
</linearGradient>
<linearGradient id="paint1_linear_370_10475" x1="21.6251" y1="29.8745" x2="18.1591" y2="29.9715" gradientUnits="userSpaceOnUse">
<stop stop-color="#E21D1D"/>
<stop offset="1" stop-color="#F2F2F2"/>
</linearGradient>
<linearGradient id="paint2_linear_370_10475" x1="28.6678" y1="27.23" x2="22.9744" y2="27.3947" gradientUnits="userSpaceOnUse">
<stop stop-color="#E21D1D"/>
<stop offset="1" stop-color="#F2F2F2"/>
</linearGradient>
<linearGradient id="paint3_linear_370_10475" x1="27.5581" y1="7.5542" x2="11.5381" y2="8.85748" gradientUnits="userSpaceOnUse">
<stop stop-color="#E21D1D"/>
<stop offset="1" stop-color="#F2F2F2"/>
</linearGradient>
<linearGradient id="paint4_linear_370_10475" x1="35.6333" y1="9.06864e-06" x2="2.47" y2="2.56585" gradientUnits="userSpaceOnUse">
<stop stop-color="#E21D1D"/>
<stop offset="1" stop-color="#F2F2F2"/>
</linearGradient>
<clipPath id="clip0_370_10475">
<rect width="40" height="40" fill="white"/>
</clipPath>
</defs>
</svg>
