<svg width="40" height="40" viewBox="0 0 40 40" fill="none" xmlns="http://www.w3.org/2000/svg">
<path d="M7.545 18.75C7.69548 17.7089 8.21601 16.7569 9.01123 16.0684C9.80645 15.3799 10.8231 15.0009 11.875 15.0009C12.9269 15.0009 13.9436 15.3799 14.7388 16.0684C15.534 16.7569 16.0545 17.7089 16.205 18.75H18.75V14.9375C18.75 14.754 18.7905 14.5727 18.8684 14.4066C18.9464 14.2404 19.06 14.0935 19.2011 13.9762C19.3423 13.8589 19.5075 13.7742 19.6851 13.728C19.8627 13.6817 20.0483 13.6752 20.2288 13.7087C20.3593 13.7346 20.4919 13.7484 20.625 13.75C21.1223 13.75 21.5992 13.5525 21.9508 13.2008C22.3025 12.8492 22.5 12.3723 22.5 11.875C22.5 11.3777 22.3025 10.9008 21.9508 10.5492C21.5992 10.1975 21.1223 10 20.625 10C20.4919 10.0016 20.3593 10.0154 20.2288 10.0413C20.0483 10.0748 19.8627 10.0683 19.6851 10.022C19.5075 9.97582 19.3423 9.89105 19.2011 9.77377C19.06 9.65648 18.9464 9.50955 18.8684 9.34342C18.7905 9.17728 18.75 8.99602 18.75 8.8125V2.5H6.25C5.25544 2.5 4.30161 2.89509 3.59835 3.59835C2.89509 4.30161 2.5 5.25544 2.5 6.25V18.75H7.545Z" fill="url(#paint0_linear_370_10459)"/>
<path d="M21.25 7.545C22.2911 7.69548 23.2431 8.21601 23.9316 9.01123C24.6201 9.80645 24.9991 10.8231 24.9991 11.875C24.9991 12.9269 24.6201 13.9436 23.9316 14.7388C23.2431 15.534 22.2911 16.0545 21.25 16.205V18.75H25.0625C25.246 18.75 25.4273 18.7905 25.5934 18.8684C25.7596 18.9464 25.9065 19.06 26.0238 19.2011C26.1411 19.3423 26.2258 19.5075 26.2721 19.6851C26.3183 19.8627 26.3248 20.0483 26.2913 20.2288C26.2654 20.3593 26.2516 20.4919 26.25 20.625C26.25 21.1223 26.4475 21.5992 26.7992 21.9508C27.1508 22.3025 27.6277 22.5 28.125 22.5C28.6223 22.5 29.0992 22.3025 29.4508 21.9508C29.8025 21.5992 30 21.1223 30 20.625C29.9984 20.4919 29.9846 20.3593 29.9587 20.2288C29.9252 20.0483 29.9317 19.8627 29.9779 19.6851C30.0242 19.5075 30.1089 19.3423 30.2262 19.2011C30.3435 19.06 30.4904 18.9464 30.6566 18.8684C30.8227 18.7905 31.004 18.75 31.1875 18.75H37.5V6.25C37.5 5.25544 37.1049 4.30161 36.4017 3.59835C35.6984 2.89509 34.7446 2.5 33.75 2.5H21.25V7.545Z" fill="url(#paint1_linear_370_10459)"/>
<path d="M18.75 32.455C17.7089 32.3045 16.7569 31.784 16.0684 30.9888C15.3799 30.1936 15.0009 29.1769 15.0009 28.125C15.0009 27.0731 15.3799 26.0564 16.0684 25.2612C16.7569 24.466 17.7089 23.9455 18.75 23.795V21.25H14.9375C14.754 21.25 14.5727 21.2096 14.4066 21.1316C14.2404 21.0536 14.0935 20.94 13.9762 20.7989C13.8589 20.6577 13.7742 20.4925 13.728 20.3149C13.6817 20.1373 13.6752 19.9517 13.7087 19.7713C13.7346 19.6407 13.7484 19.5081 13.75 19.375C13.75 18.8777 13.5525 18.4008 13.2008 18.0492C12.8492 17.6975 12.3723 17.5 11.875 17.5C11.3777 17.5 10.9008 17.6975 10.5492 18.0492C10.1975 18.4008 10 18.8777 10 19.375C10.0016 19.5081 10.0154 19.6407 10.0413 19.7713C10.0748 19.9517 10.0683 20.1373 10.022 20.3149C9.97582 20.4925 9.89105 20.6577 9.77377 20.7989C9.65648 20.94 9.50955 21.0536 9.34342 21.1316C9.17728 21.2096 8.99602 21.25 8.8125 21.25H2.5V33.75C2.5 34.7446 2.89509 35.6984 3.59835 36.4017C4.30161 37.1049 5.25544 37.5 6.25 37.5H18.75V32.455Z" fill="url(#paint2_linear_370_10459)"/>
<path d="M32.455 21.25C32.3045 22.2911 31.784 23.2431 30.9888 23.9316C30.1936 24.6201 29.1769 24.9991 28.125 24.9991C27.0731 24.9991 26.0564 24.6201 25.2612 23.9316C24.466 23.2431 23.9455 22.2911 23.795 21.25H21.25V25.0625C21.25 25.246 21.2095 25.4273 21.1315 25.5934C21.0535 25.7596 20.9399 25.9065 20.7987 26.0238C20.6582 26.142 20.493 26.2274 20.3152 26.2737C20.1375 26.32 19.9516 26.326 19.7713 26.2913C19.6407 26.2654 19.5081 26.2516 19.375 26.25C18.8777 26.25 18.4008 26.4475 18.0492 26.7992C17.6975 27.1508 17.5 27.6277 17.5 28.125C17.5 28.6223 17.6975 29.0992 18.0492 29.4508C18.4008 29.8025 18.8777 30 19.375 30C19.5081 29.9984 19.6407 29.9846 19.7713 29.9587C19.9517 29.9252 20.1373 29.9317 20.3149 29.9779C20.4925 30.0242 20.6577 30.1089 20.7989 30.2262C20.94 30.3435 21.0536 30.4904 21.1316 30.6566C21.2096 30.8227 21.25 31.004 21.25 31.1875V37.5H33.75C34.7446 37.5 35.6984 37.1049 36.4017 36.4017C37.1049 35.6984 37.5 34.7446 37.5 33.75V21.25H32.455Z" fill="url(#paint3_linear_370_10459)"/>
<defs>
<linearGradient id="paint0_linear_370_10459" x1="24.2571" y1="2.50001" x2="-0.583804" y2="4.98726" gradientUnits="userSpaceOnUse">
<stop stop-color="#E21D1D"/>
<stop offset="1" stop-color="#F2F2F2"/>
</linearGradient>
<linearGradient id="paint1_linear_370_10459" x1="38.9277" y1="2.50001" x2="18.6307" y2="3.84162" gradientUnits="userSpaceOnUse">
<stop stop-color="#E21D1D"/>
<stop offset="1" stop-color="#F2F2F2"/>
</linearGradient>
<linearGradient id="paint2_linear_370_10459" x1="20.1777" y1="17.5" x2="-0.119257" y2="18.8416" gradientUnits="userSpaceOnUse">
<stop stop-color="#E21D1D"/>
<stop offset="1" stop-color="#F2F2F2"/>
</linearGradient>
<linearGradient id="paint3_linear_370_10459" x1="39.2571" y1="21.25" x2="14.4162" y2="23.7373" gradientUnits="userSpaceOnUse">
<stop stop-color="#E21D1D"/>
<stop offset="1" stop-color="#F2F2F2"/>
</linearGradient>
</defs>
</svg>
