<svg width="40" height="40" viewBox="0 0 40 40" fill="none" xmlns="http://www.w3.org/2000/svg">
<g clip-path="url(#clip0_370_10441)">
<path fill-rule="evenodd" clip-rule="evenodd" d="M14.3975 22.3564H13.4148C12.6761 22.3564 12.0707 21.7543 12.0707 21.0123V18.9196C11.2407 18.7243 10.4565 18.3988 9.73065 17.9497L8.24987 19.4307C7.72275 19.9578 6.8722 19.9536 6.34884 19.434C5.79829 18.8872 5.25853 18.5038 5.25853 17.7871C5.25853 17.4256 5.39868 17.0907 5.65251 16.8367L7.1333 15.3559C6.684 14.63 6.35869 13.8458 6.16345 13.0159H4.07071C3.33196 13.0159 2.72656 12.4138 2.72656 11.6717V10.6887C2.72656 9.94999 3.32867 9.3446 4.07071 9.3446H6.16345C6.35869 8.51467 6.684 7.73045 7.1333 7.00459L5.65251 5.5238C5.12681 4.9981 5.12634 4.15059 5.65251 3.62301C6.20025 3.07387 6.57244 2.5327 7.29619 2.5327C7.6576 2.5327 7.99276 2.67262 8.24682 2.92645L9.72761 4.40747C10.4535 3.95817 11.2379 3.63286 12.0676 3.43762V1.34488C12.0676 0.606125 12.67 0.000732422 13.4118 0.000732422H14.3947C15.1335 0.000732422 15.7389 0.602844 15.7389 1.34488V3.43762C16.5688 3.63286 17.3533 3.95817 18.0789 4.40747L19.5599 2.92645C20.0861 2.40027 20.9359 2.40168 21.4607 2.92645C22.0098 3.47559 22.551 3.8527 22.551 4.57341C22.551 4.93481 22.4111 5.26997 22.1573 5.5238L20.6765 7.00459C21.1255 7.73045 21.4511 8.51491 21.6461 9.3446H23.7388C24.4776 9.3446 25.083 9.94671 25.083 10.6887V11.6717C25.083 12.4105 24.4809 13.0159 23.7388 13.0159H21.6461C21.4509 13.8458 21.1255 14.63 20.6765 15.3559L22.1573 16.8367C22.6827 17.3624 22.6832 18.2101 22.1573 18.7377C21.6095 19.2868 21.2366 19.828 20.5136 19.828C20.1557 19.828 19.817 19.6881 19.5632 19.4342L18.0822 17.9532C17.3565 18.4025 16.5719 18.7278 15.7422 18.9231V21.0158C15.7422 21.7546 15.14 22.3567 14.398 22.3567L14.3975 22.3564ZM13.9063 16.6768C10.876 16.6768 8.41229 14.2131 8.41229 11.1828C8.41229 8.15256 10.876 5.6888 13.9063 5.6888C16.9363 5.6888 19.4003 8.15256 19.4003 11.1828C19.4003 14.2098 16.9363 16.6768 13.9063 16.6768Z" fill="url(#paint0_linear_370_10441)"/>
<path fill-rule="evenodd" clip-rule="evenodd" d="M10.38 40H9.54019C8.86964 40 8.32612 39.4564 8.32612 38.7859V37.0543C7.64901 36.8884 7.00471 36.6214 6.40588 36.257L5.17892 37.4839C4.72002 37.9428 3.91939 37.9428 3.46048 37.4839C2.98142 37.0049 2.51337 36.6777 2.51337 36.0324C2.51337 35.7069 2.64017 35.401 2.86821 35.1732L4.09517 33.9463C3.73072 33.3472 3.46376 32.7062 3.30111 32.026H1.56954C0.898986 32.026 0.355469 31.4825 0.355469 30.812V29.9722C0.355469 29.3019 0.898986 28.7581 1.56954 28.7581H3.30111C3.46704 28.0812 3.734 27.4367 4.09845 26.8379L2.87149 25.6109C2.39829 25.1375 2.39829 24.3657 2.87149 23.8925L3.46376 23.3002C3.92267 22.8413 4.7233 22.8413 5.18221 23.3002L6.40916 24.5272C7.00823 24.1625 7.64925 23.8958 8.32941 23.7296V21.9982C8.32941 21.3279 8.87292 20.7842 9.54347 20.7842L10.3832 20.7844C11.0536 20.7844 11.5973 21.3279 11.5973 21.9985V23.7298C12.2742 23.8958 12.9187 24.1627 13.5176 24.5272L14.7445 23.3002C15.2001 22.8413 16.0043 22.8413 16.4632 23.3002C16.942 23.779 17.4103 24.1067 17.4103 24.7517C17.4103 25.0772 17.2835 25.3831 17.0555 25.6109L15.8252 26.8379C16.1899 27.4367 16.4566 28.078 16.6195 28.7581H18.3511C19.0214 28.7581 19.5652 29.3016 19.5652 29.9722V30.812C19.5652 31.4825 19.0216 32.026 18.3511 32.026H16.6195C16.4536 32.7031 16.1866 33.3474 15.8219 33.9463L17.0489 35.1732C17.5223 35.6464 17.5223 36.4185 17.0489 36.8917L16.4566 37.4842C15.998 37.9428 15.1971 37.9428 14.7382 37.4842L13.5112 36.2572C12.9124 36.6217 12.2711 36.8886 11.591 37.0546V38.7861C11.5943 39.4567 11.0505 40.0002 10.3802 40.0002L10.38 40ZM9.95996 35.1505C7.33659 35.1505 5.20166 33.0156 5.20166 30.3922C5.20166 27.7688 7.33682 25.6339 9.95996 25.6339C12.5833 25.6339 14.7183 27.7691 14.7183 30.3922C14.7183 33.0156 12.5833 35.1505 9.95996 35.1505Z" fill="url(#paint1_linear_370_10441)"/>
<path fill-rule="evenodd" clip-rule="evenodd" d="M30.4614 32.4199H29.6216C28.9513 32.4199 28.4075 31.8764 28.4075 31.2058V29.4742C27.7307 29.3083 27.0861 29.0413 26.4873 28.6769L25.2603 29.9038C24.8014 30.3628 24.0006 30.3628 23.5419 29.9038C23.0631 29.425 22.5948 29.0976 22.5948 28.4524C22.5948 28.1268 22.7216 27.8209 22.9496 27.5931L24.1766 26.3662C23.8119 25.7673 23.5452 25.1261 23.3792 24.4459H21.6477C20.9773 24.4459 20.4336 23.9024 20.4336 23.2319V22.3921C20.4336 21.7215 20.9771 21.178 21.6477 21.178H23.3792C23.5452 20.5009 23.8121 19.8566 24.1766 19.2578L22.9496 18.0308C22.4743 17.5557 22.4743 16.7875 22.9496 16.3124L23.5419 15.7199C24.017 15.2448 24.7853 15.2448 25.2603 15.7199L26.4873 16.9468C27.0861 16.5824 27.7274 16.3154 28.4075 16.1495V14.4179C28.4075 13.7476 28.951 13.2039 29.6216 13.2039H30.4611C31.1317 13.2039 31.6752 13.7474 31.6752 14.4179V16.1495C32.3523 16.3154 32.9966 16.5824 33.5954 16.9468L34.8224 15.7199C35.2975 15.2481 36.0658 15.2448 36.5408 15.7199L37.1333 16.3124C37.6084 16.7875 37.6084 17.5557 37.1333 18.0308L35.9064 19.2578C36.2708 19.8569 36.5378 20.4979 36.7005 21.178H38.432C39.1026 21.178 39.6461 21.7215 39.6461 22.3921V23.2319C39.6461 23.9022 39.1026 24.4459 38.432 24.4459H36.7005C36.5345 25.1228 36.2676 25.7673 35.9031 26.3662L37.1301 27.5931C37.6019 28.0649 37.6019 28.8365 37.1301 29.3116L36.5345 29.9038C36.0789 30.3628 35.275 30.3628 34.8161 29.9038L33.5891 28.6769C32.99 29.0416 32.349 29.3083 31.6689 29.4742V31.2058C31.6754 31.8731 31.1319 32.4199 30.4614 32.4199ZM30.0416 27.5704C27.4182 27.5704 25.2833 25.4355 25.2833 22.8121C25.2833 20.1887 27.4182 18.0538 30.0416 18.0538C32.665 18.0538 34.7999 20.1887 34.7999 22.8121C34.7999 25.4355 32.6647 27.5704 30.0416 27.5704Z" fill="url(#paint2_linear_370_10441)"/>
</g>
<defs>
<linearGradient id="paint0_linear_370_10441" x1="27.0472" y1="0.000739672" x2="-0.814555" y2="2.26743" gradientUnits="userSpaceOnUse">
<stop stop-color="#E21D1D"/>
<stop offset="1" stop-color="#F2F2F2"/>
</linearGradient>
<linearGradient id="paint1_linear_370_10441" x1="21.2529" y1="20.7842" x2="-2.68734" y2="22.7312" gradientUnits="userSpaceOnUse">
<stop stop-color="#E21D1D"/>
<stop offset="1" stop-color="#F2F2F2"/>
</linearGradient>
<linearGradient id="paint2_linear_370_10441" x1="41.334" y1="13.2039" x2="17.3904" y2="15.1514" gradientUnits="userSpaceOnUse">
<stop stop-color="#E21D1D"/>
<stop offset="1" stop-color="#F2F2F2"/>
</linearGradient>
<clipPath id="clip0_370_10441">
<rect width="40" height="40" fill="white"/>
</clipPath>
</defs>
</svg>
