<svg width="40" height="40" viewBox="0 0 40 40" fill="none" xmlns="http://www.w3.org/2000/svg">
<path d="M36.4378 26.8154C36.4378 25.8685 35.9396 25.0401 35.1949 24.5652C35.8349 24.0103 36.1185 23.2932 36.1185 22.5579C36.1185 21.0816 34.9214 19.8801 33.4501 19.8801H28.197L28.1956 15.627C28.3818 12.8488 26.1629 10.603 23.4945 10.603H22.1919C21.4385 10.603 20.8254 11.2118 20.8254 11.9601V16.3223C20.8254 17.811 20.2181 19.2619 19.1592 20.3056C18.5672 20.891 17.8574 21.3252 17.0829 21.5943C17.0254 20.9528 16.4916 20.4467 15.8349 20.4467H8.83703C8.14249 20.4467 7.57812 21.0118 7.57812 21.7056V36.6328C7.57812 37.3274 8.14249 37.8918 8.83703 37.8918H15.8349C16.5294 37.8918 17.0938 37.3267 17.0938 36.6328V36.2176C17.8945 36.2227 18.6778 36.4954 19.3039 36.9914C20.1454 37.651 21.1534 37.9994 22.2189 37.9994H31.1745C32.6763 37.9994 33.8523 36.7754 33.8523 35.331C33.8523 34.7012 33.6247 34.1288 33.2588 33.6707C34.4443 33.3965 35.333 32.3376 35.333 31.0707C35.333 30.3987 35.0756 29.7914 34.6647 29.3208C35.6952 28.9499 36.4378 27.9725 36.4378 26.8154ZM15.8349 36.8016H8.83703C8.74394 36.8016 8.66903 36.7259 8.66903 36.6336V21.7056C8.66903 21.6132 8.74467 21.5376 8.83703 21.5376H15.8349C15.9279 21.5376 16.0029 21.6132 16.0029 21.7056V36.6328C16.0036 36.7259 15.9279 36.8016 15.8349 36.8016ZM33.7643 28.3979H30.1774C29.8763 28.3979 29.6319 28.6423 29.6319 28.9434C29.6319 29.2445 29.8763 29.4888 30.1774 29.4888H32.6596C33.5323 29.4888 34.2429 30.1987 34.2429 31.0714C34.2429 31.9441 33.5323 32.6539 32.6596 32.6539H30.1774C29.8763 32.6539 29.6319 32.8983 29.6319 33.1994C29.6319 33.5005 29.8763 33.7448 30.1774 33.7448H31.1752C32.0501 33.7448 32.7621 34.4568 32.7621 35.3318C32.7621 36.1732 32.0741 36.9092 31.1752 36.9092H22.2196C21.4007 36.9092 20.6261 36.6408 19.9803 36.1354C19.1643 35.4888 18.1403 35.1325 17.0945 35.1274V22.7238C18.1563 22.419 19.1323 21.8663 19.9265 21.0816C21.1912 19.8358 21.917 18.1005 21.917 16.3223V11.9601C21.917 11.8132 22.0407 11.6939 22.1927 11.6939H23.4952C25.5447 11.6939 27.2509 13.3987 27.1069 15.5907V20.4256C27.1069 20.7267 27.3512 20.971 27.6523 20.971H33.4508C34.3207 20.971 35.0283 21.683 35.0283 22.5579C35.0283 23.467 34.2952 24.1354 33.4508 24.1354C33.3759 24.1354 30.253 24.1427 30.1781 24.1427C29.877 24.1427 29.6327 24.387 29.6327 24.6881C29.6327 24.9892 29.877 25.2336 30.1781 25.2336H33.765C34.6378 25.2336 35.3483 25.9434 35.3483 26.8161C35.3468 27.6881 34.637 28.3979 33.7643 28.3979Z" fill="url(#paint0_linear_82_6043)"/>
<path d="M11.2392 14.6916L14.8428 16.5862C14.9984 16.6676 15.1664 16.7084 15.3337 16.7084C15.5519 16.7084 15.7679 16.64 15.9526 16.5062C16.2792 16.2684 16.4406 15.8735 16.3723 15.4749L15.6843 11.4625L18.5992 8.62109C18.8879 8.33964 18.9904 7.92509 18.8661 7.54109C18.741 7.15636 18.4152 6.88145 18.0144 6.82327L13.9868 6.23782L12.1846 2.58836C12.0064 2.22618 11.6443 2 11.2406 2H11.2392C10.8348 2 10.4726 2.22545 10.2937 2.58764L8.49225 6.23782L4.46316 6.82327C4.06316 6.88145 3.73807 7.15636 3.61298 7.54036C3.48789 7.92509 3.59043 8.33891 3.87989 8.62109L6.7948 11.4625L6.1068 15.4742C6.03771 15.872 6.19843 16.2669 6.52498 16.5047C6.85152 16.7425 7.27843 16.7738 7.63552 16.5855L11.2392 14.6916ZM7.76207 10.8815L4.62098 7.90255L8.93371 7.27636C9.11189 7.25018 9.26534 7.13891 9.34462 6.97818L11.2283 3.11491L13.1352 6.97818C13.2144 7.13891 13.3679 7.25091 13.5461 7.27636L17.837 7.84L14.717 10.8815C14.5883 11.0065 14.5293 11.1869 14.5599 11.3644L15.3497 15.6204L11.4923 13.5927C11.333 13.5098 11.1432 13.5098 10.9853 13.5927L7.18243 15.6596L7.91916 11.3651C7.94971 11.1869 7.89007 11.0065 7.76207 10.8815Z" fill="url(#paint1_linear_82_6043)"/>
<path d="M12.3391 31.8C11.2162 31.8 10.3027 32.7135 10.3027 33.8364C10.3027 34.9593 11.2162 35.8728 12.3391 35.8728C13.4576 35.8728 14.3682 34.9593 14.3682 33.8364C14.3682 32.7135 13.4576 31.8 12.3391 31.8ZM12.3391 34.7819C11.8176 34.7819 11.3936 34.3579 11.3936 33.8364C11.3936 33.315 11.8176 32.891 12.3391 32.891C12.8562 32.891 13.2773 33.315 13.2773 33.8364C13.2773 34.3579 12.8562 34.7819 12.3391 34.7819Z" fill="url(#paint2_linear_82_6043)"/>
<defs>
<linearGradient id="paint0_linear_82_6043" x1="38.9733" y1="10.603" x2="3.03284" y2="13.6831" gradientUnits="userSpaceOnUse">
<stop stop-color="#E21D1D"/>
<stop offset="1" stop-color="#F2F2F2"/>
</linearGradient>
<linearGradient id="paint1_linear_82_6043" x1="20.2673" y1="2" x2="1.13935" y2="3.62481" gradientUnits="userSpaceOnUse">
<stop stop-color="#E21D1D"/>
<stop offset="1" stop-color="#F2F2F2"/>
</linearGradient>
<linearGradient id="paint2_linear_82_6043" x1="14.7254" y1="31.8001" x2="9.65867" y2="32.2115" gradientUnits="userSpaceOnUse">
<stop stop-color="#E21D1D"/>
<stop offset="1" stop-color="#F2F2F2"/>
</linearGradient>
</defs>
</svg>
