<svg width="20" height="20" viewBox="0 0 20 20" fill="none" xmlns="http://www.w3.org/2000/svg">
<path d="M15.6161 5.98341C15.7446 6.08829 15.8224 6.23566 15.8325 6.39315C15.8426 6.55064 15.7842 6.70536 15.67 6.82333L8.74807 13.9665C8.68719 14.0293 8.61248 14.0796 8.52886 14.1141C8.44525 14.1485 8.35463 14.1663 8.26297 14.1663C8.17131 14.1663 8.08069 14.1485 7.99707 14.1141C7.91346 14.0796 7.83875 14.0293 7.77786 13.9665L4.31692 10.3949C4.20926 10.2761 4.15616 10.1236 4.16883 9.96959C4.1815 9.81557 4.25895 9.67209 4.38481 9.56947C4.51067 9.46685 4.6751 9.41313 4.84335 9.41964C5.01159 9.42616 5.17049 9.49241 5.28647 9.6044L8.26264 12.6754L14.7004 6.03222C14.8148 5.91446 14.9756 5.84316 15.1472 5.83401C15.3189 5.82486 15.4876 5.87859 15.6161 5.98341Z" fill="#C72626"/>
</svg>
