<svg width="40" height="40" viewBox="0 0 40 40" fill="none" xmlns="http://www.w3.org/2000/svg">
<g clip-path="url(#clip0_82_6126)">
<path d="M39.0702 9.05102C38.9963 8.91422 38.8712 8.81234 38.7221 8.76789L36.7728 8.18648L37.1231 7.01492C37.2223 6.68781 37.1873 6.34117 37.0244 6.03883C36.9603 5.91992 36.8792 5.8143 36.7851 5.72328L37.4346 3.55219C37.7757 2.40492 37.121 1.19414 35.9762 0.853594C35.4212 0.6875 34.8337 0.748125 34.322 1.02453C33.811 1.30062 33.4389 1.75773 33.2745 2.31078L32.6248 4.48195C32.2016 4.56141 31.833 4.85086 31.6688 5.26937L26.643 0.4825L26.5551 0.398359C26.4499 0.297266 26.3511 0.203516 26.2369 0.131953C26.2318 0.128438 26.2266 0.125 26.2214 0.121641C26.2193 0.120391 26.2173 0.119062 26.2152 0.117891C26.1702 0.0892969 26.1211 0.0665625 26.0687 0.0510937C25.9807 0.0196094 25.8824 0 25.7648 0H1.96891C1.35711 0 0.859375 0.4975 0.859375 1.10898V17.8756C0.859375 18.1993 1.12172 18.4616 1.44531 18.4616C1.76891 18.4616 2.03125 18.1993 2.03125 17.8756V1.17188H25.3159L25.312 4.55547C25.312 6.04078 26.5203 7.24914 28.0055 7.24914H31.0713L28.6622 15.3053C28.5695 15.6153 28.7456 15.9418 29.0557 16.0345C29.3659 16.1276 29.6922 15.9511 29.7849 15.641L32.4126 6.8543C32.4175 6.83992 32.4218 6.82539 32.4257 6.81055L32.7559 5.70648C32.772 5.65203 32.8361 5.61914 32.8918 5.63555L35.9299 6.54234C35.964 6.55242 35.9829 6.57633 35.9927 6.59453C36.0024 6.61266 36.0119 6.64133 36.001 6.67711L35.4831 8.40906C35.4827 8.41039 35.4821 8.41164 35.4817 8.41297C35.4813 8.4143 35.4812 8.41562 35.4808 8.41687L29.0916 29.7844L28.0313 29.4681L25.8463 28.8162L29.0105 18.2364C29.1032 17.9263 28.927 17.5998 28.617 17.5071C28.307 17.4143 27.9805 17.5905 27.8877 17.9005L24.5555 29.0421C24.5545 29.0455 24.5539 29.0491 24.5529 29.0526C24.5509 29.0595 24.5495 29.0666 24.5477 29.0736C24.5442 29.0884 24.5412 29.1032 24.5388 29.118C24.5377 29.1255 24.5366 29.1328 24.5356 29.1403C24.5337 29.1566 24.5325 29.1728 24.532 29.1891C24.5317 29.195 24.5312 29.2007 24.5312 29.2066C24.531 29.2288 24.532 29.251 24.5345 29.2732C24.5345 29.2739 24.5345 29.2746 24.5345 29.2753L24.8585 32.1661L25.0902 34.2125C24.8682 34.067 24.7014 33.8135 24.5012 33.4868C24.2552 33.0855 23.9183 32.5362 23.2731 32.6573C22.7312 32.7619 22.4763 33.2148 22.2298 33.6527C22.102 33.8798 21.9697 34.1148 21.7854 34.3488C21.6491 34.522 21.5572 34.5713 21.5277 34.573C21.5041 34.5749 21.3678 34.5619 20.9838 34.1798C19.9788 33.1827 19.1972 33.8629 18.8216 34.1896C18.6813 34.3117 18.5223 34.4499 18.4179 34.4688C18.3191 34.4855 18.1391 34.3848 17.9344 34.197C17.6958 33.9783 17.3252 33.9943 17.1065 34.233C16.8878 34.4715 16.9038 34.8421 17.1423 35.0609C18.3416 36.1606 19.1853 35.4266 19.5908 35.0737C19.6898 34.9875 19.8556 34.8433 19.9124 34.8327C19.9132 34.8327 19.9927 34.8472 20.1578 35.011C20.5248 35.3763 20.972 35.745 21.5234 35.745C21.5484 35.745 21.5735 35.7442 21.5988 35.7427C22.0039 35.7182 22.3766 35.4929 22.7063 35.0737C22.9466 34.7689 23.1155 34.4687 23.2513 34.2274C23.3 34.1411 23.358 34.0377 23.4113 33.9528C23.4427 34.0021 23.4744 34.0538 23.5023 34.0994C23.8314 34.6359 24.4392 35.6255 25.7904 35.5127C25.7927 35.5127 25.7952 35.5132 25.7976 35.5132C25.8846 35.5132 25.962 35.493 26.0298 35.4628C26.0398 35.4586 26.0494 35.4538 26.0591 35.449C26.061 35.448 26.063 35.447 26.065 35.446C26.0935 35.4316 26.1206 35.4151 26.146 35.3964C26.2291 35.3382 26.2911 35.2711 26.3314 35.2273C26.3381 35.2201 26.3446 35.2127 26.3509 35.205L29.936 30.8877C29.9413 30.8813 29.9456 30.8741 29.9507 30.8676C29.9571 30.8591 29.9634 30.8508 29.9694 30.842C29.9817 30.8238 29.9928 30.8051 30.003 30.7858C30.006 30.7799 30.0096 30.7745 30.0125 30.7686C30.0252 30.7425 30.0354 30.7155 30.044 30.688C30.0448 30.6856 30.0459 30.6836 30.0466 30.6812L31.6947 25.1695V38.8281H2.03125V20.5841C2.03125 20.2604 1.76891 19.9981 1.44531 19.9981C1.12172 19.9981 0.859375 20.2604 0.859375 20.5841V38.8888C0.859375 39.5015 1.35711 40 1.96891 40H31.7549C32.368 40 32.8666 39.5015 32.8666 38.8887V21.2502L36.4372 9.30922L37.8254 9.72328L35.4443 17.6856C35.3516 17.9956 35.5277 18.3221 35.8378 18.4148C35.8938 18.4316 35.9503 18.4395 36.0059 18.4395C36.2582 18.4395 36.4911 18.2753 36.5671 18.0212L39.1162 9.49719C39.1606 9.34828 39.1441 9.18781 39.0702 9.05102ZM34.3975 2.6457C34.4729 2.39219 34.6439 2.18258 34.8791 2.05555C35.1151 1.92797 35.3853 1.89992 35.6411 1.97641C36.1677 2.13313 36.4684 2.69016 36.3117 3.21719L35.7031 5.25156L33.7889 4.68023L34.3975 2.6457ZM26.4839 4.55609L26.4868 1.95156L30.818 6.07719H28.0055C27.1665 6.07719 26.4839 5.39453 26.4839 4.55609ZM26.1957 33.5575L25.798 30.0247L28.4678 30.8212L26.1957 33.5575Z" fill="url(#paint0_linear_82_6126)"/>
<path d="M8.27539 15.8167C8.27539 16.1403 8.53773 16.4026 8.86133 16.4026H24.7705C25.0941 16.4026 25.3564 16.1403 25.3564 15.8167C25.3564 15.493 25.0941 15.2307 24.7705 15.2307H8.86133C8.53773 15.2307 8.27539 15.4931 8.27539 15.8167Z" fill="url(#paint1_linear_82_6126)"/>
<path d="M8.86133 20.9573H23.8009C24.1245 20.9573 24.3869 20.695 24.3869 20.3713C24.3869 20.0477 24.1245 19.7854 23.8009 19.7854H8.86133C8.53773 19.7854 8.27539 20.0477 8.27539 20.3713C8.27539 20.695 8.53773 20.9573 8.86133 20.9573Z" fill="url(#paint2_linear_82_6126)"/>
<path d="M8.86133 25.5117H22.6451C22.9687 25.5117 23.231 25.2495 23.231 24.9258C23.231 24.6021 22.9687 24.3398 22.6451 24.3398H8.86133C8.53773 24.3398 8.27539 24.6021 8.27539 24.9258C8.27539 25.2495 8.53773 25.5117 8.86133 25.5117Z" fill="url(#paint3_linear_82_6126)"/>
<path d="M8.86133 30.0664H18.3012C18.6248 30.0664 18.8871 29.8041 18.8871 29.4805C18.8871 29.1568 18.6248 28.8945 18.3012 28.8945H8.86133C8.53773 28.8945 8.27539 29.1568 8.27539 29.4805C8.27539 29.8041 8.53773 30.0664 8.86133 30.0664Z" fill="url(#paint4_linear_82_6126)"/>
<path d="M22.9066 11.8989C23.4499 11.8989 23.892 11.4571 23.892 10.9141V8.55149C23.892 8.00845 23.4499 7.56665 22.9066 7.56665H10.0126C9.4693 7.56665 9.02734 8.00845 9.02734 8.55149V10.914C9.02734 11.457 9.4693 11.8988 10.0126 11.8988H22.9066V11.8989ZM10.1992 8.73845H22.7202V10.727H10.1992V8.73845Z" fill="url(#paint5_linear_82_6126)"/>
</g>
<defs>
<linearGradient id="paint0_linear_82_6126" x1="42.504" y1="1.29724e-05" x2="-5.23055" y2="3.71651" gradientUnits="userSpaceOnUse">
<stop stop-color="#E21D1D"/>
<stop offset="1" stop-color="#F2F2F2"/>
</linearGradient>
<linearGradient id="paint1_linear_82_6126" x1="26.8571" y1="15.2307" x2="17.9513" y2="25.7911" gradientUnits="userSpaceOnUse">
<stop stop-color="#E21D1D"/>
<stop offset="1" stop-color="#F2F2F2"/>
</linearGradient>
<linearGradient id="paint2_linear_82_6126" x1="25.8024" y1="19.7854" x2="16.8233" y2="29.8283" gradientUnits="userSpaceOnUse">
<stop stop-color="#E21D1D"/>
<stop offset="1" stop-color="#F2F2F2"/>
</linearGradient>
<linearGradient id="paint3_linear_82_6126" x1="24.545" y1="24.3398" x2="15.5159" y2="33.7142" gradientUnits="userSpaceOnUse">
<stop stop-color="#E21D1D"/>
<stop offset="1" stop-color="#F2F2F2"/>
</linearGradient>
<linearGradient id="paint4_linear_82_6126" x1="19.8194" y1="28.8945" x2="11.1901" y2="35.2516" gradientUnits="userSpaceOnUse">
<stop stop-color="#E21D1D"/>
<stop offset="1" stop-color="#F2F2F2"/>
</linearGradient>
<linearGradient id="paint5_linear_82_6126" x1="25.1979" y1="7.56665" x2="7.89819" y2="12.3956" gradientUnits="userSpaceOnUse">
<stop stop-color="#E21D1D"/>
<stop offset="1" stop-color="#F2F2F2"/>
</linearGradient>
<clipPath id="clip0_82_6126">
<rect width="40" height="40" fill="white"/>
</clipPath>
</defs>
</svg>
