<svg width="40" height="40" viewBox="0 0 40 40" fill="none" xmlns="http://www.w3.org/2000/svg">
<g clip-path="url(#clip0_82_6075)">
<path d="M34.7913 27.7983C34.5666 27.7983 34.3848 27.9802 34.3848 28.2049V30.2056C34.3848 30.4303 34.5666 30.6122 34.7913 30.6122C35.016 30.6122 35.1979 30.4303 35.1979 30.2056V28.2049C35.1979 27.9802 35.016 27.7983 34.7913 27.7983Z" fill="url(#paint0_linear_82_6075)"/>
<path d="M31.6312 21.6147C33.1495 21.6147 34.3847 22.8499 34.3847 24.3678C34.3847 24.5925 34.5666 24.7743 34.7913 24.7743C35.0159 24.7743 35.1978 24.5925 35.1978 24.3678C35.1978 22.4012 33.5977 20.8015 31.6312 20.8015H31.0781C29.1116 20.8015 27.5119 22.4012 27.5119 24.3678V29.8088C27.5119 32.2256 25.5453 34.1921 23.1281 34.1921C20.7113 34.1921 18.7448 32.2256 18.7448 29.8088V26.376C18.7448 26.1513 18.5629 25.9694 18.3382 25.9694C18.1135 25.9694 17.9316 26.1513 17.9316 26.376V29.8088C17.9316 32.6742 20.2627 35.0053 23.1281 35.0053C25.9936 35.0053 28.325 32.6742 28.325 29.8088V24.3678C28.325 22.8499 29.5602 21.6147 31.078 21.6147H31.6312Z" fill="url(#paint1_linear_82_6075)"/>
<path d="M27.4294 20.8486C28.2028 20.4765 28.7027 19.6796 28.7027 18.8185V11.7021L33.8777 9.90574C34.1407 9.81441 34.3731 9.67691 34.5764 9.50988V15.3786C34.5764 15.6032 34.7583 15.7851 34.983 15.7851C35.2077 15.7851 35.3895 15.6032 35.3895 15.3786V7.78152C35.3895 7.77809 35.3877 7.7752 35.3876 7.77176C35.3834 6.80457 34.792 5.97535 33.8777 5.65809L19.9619 0.82543C18.658 0.372383 17.2207 0.372383 15.9152 0.825039L1.99501 5.65855C-0.0218645 6.35848 -0.0164739 9.20801 1.99501 9.90606L7.16962 11.7028V18.8184C7.16962 19.6796 7.66946 20.4764 8.44329 20.8485C11.46 22.2985 14.6983 23.0235 17.9365 23.0235C21.1745 23.0235 24.4127 22.2986 27.4294 20.8486ZM2.26189 6.42645L16.1821 1.59285C17.3144 1.1998 18.5619 1.2002 19.6952 1.59324L33.611 6.42598C34.1345 6.60785 34.4085 6.98941 34.5173 7.37488H17.9362C17.7115 7.37488 17.5296 7.55676 17.5296 7.78145C17.5296 8.00613 17.7115 8.18801 17.9362 8.18801H34.5174C34.4088 8.57387 34.1348 8.95582 33.6109 9.1377L19.6903 13.9702C18.5576 14.3636 17.3101 14.3629 16.1781 13.9702L2.26189 9.13824C0.975557 8.69152 0.976261 6.87293 2.26189 6.42645ZM8.79595 20.1156C8.30204 19.8782 7.98282 19.3692 7.98282 18.8185V11.9852L15.9113 14.7381C17.2145 15.191 18.6525 15.1915 19.9572 14.7381L27.8897 11.9844V18.8185C27.8897 19.3692 27.5709 19.8782 27.077 20.1156C21.2677 22.9088 14.6042 22.908 8.79595 20.1156Z" fill="url(#paint2_linear_82_6075)"/>
<path d="M34.7908 25.771C32.187 25.771 30.0684 27.8896 30.0684 30.4934V34.7918C30.0684 37.3955 32.187 39.5142 34.7908 39.5142C37.3946 39.5142 39.5132 37.3956 39.5132 34.7918V30.4934C39.5132 27.8896 37.3945 25.771 34.7908 25.771ZM38.7 34.7917C38.7 36.9472 36.9462 38.7009 34.7908 38.7009C32.6352 38.7009 30.8816 36.9472 30.8816 34.7917V30.4933C30.8816 28.3378 32.6353 26.5841 34.7908 26.5841C36.9463 26.5841 38.7 28.3379 38.7 30.4933V34.7917Z" fill="url(#paint3_linear_82_6075)"/>
</g>
<defs>
<linearGradient id="paint0_linear_82_6075" x1="35.2693" y1="27.7983" x2="34.2498" y2="27.8223" gradientUnits="userSpaceOnUse">
<stop stop-color="#E21D1D"/>
<stop offset="1" stop-color="#F2F2F2"/>
</linearGradient>
<linearGradient id="paint1_linear_82_6075" x1="36.7148" y1="20.8015" x2="15.2642" y2="22.9228" gradientUnits="userSpaceOnUse">
<stop stop-color="#E21D1D"/>
<stop offset="1" stop-color="#F2F2F2"/>
</linearGradient>
<linearGradient id="paint2_linear_82_6075" x1="38.4562" y1="0.485603" x2="-4.64804" y2="5.9165" gradientUnits="userSpaceOnUse">
<stop stop-color="#E21D1D"/>
<stop offset="1" stop-color="#F2F2F2"/>
</linearGradient>
<linearGradient id="paint3_linear_82_6075" x1="40.343" y1="25.771" x2="28.5314" y2="26.4314" gradientUnits="userSpaceOnUse">
<stop stop-color="#E21D1D"/>
<stop offset="1" stop-color="#F2F2F2"/>
</linearGradient>
<clipPath id="clip0_82_6075">
<rect width="40" height="40" fill="white"/>
</clipPath>
</defs>
</svg>
