<svg width="40" height="40" viewBox="0 0 40 40" fill="none" xmlns="http://www.w3.org/2000/svg">
<path d="M18.2771 10.6763C15.1943 10.6763 12.6868 13.3285 12.6868 16.5883C12.9932 24.4312 23.5621 24.4289 23.8673 16.5883C23.8673 13.3285 21.3598 10.6763 18.2771 10.6763ZM18.2771 21.0534C15.9432 21.0534 14.0439 19.0505 14.0439 16.5883C14.2421 10.679 22.3129 10.6806 22.5102 16.5884C22.5102 19.0505 20.611 21.0534 18.2771 21.0534ZM18.2763 15.5455C20.3953 15.5395 20.9682 18.4169 18.9549 19.1421C19.0137 19.6019 18.7391 20.0642 18.2764 20.06C17.8136 20.0656 17.5393 19.6007 17.5978 19.1422C16.598 18.9191 15.6301 16.8951 17.014 16.683C17.3891 16.683 17.6926 17.0066 17.6926 17.4064C17.6926 17.6006 17.9309 17.8167 18.2726 17.8185C18.612 17.8216 18.8615 17.6024 18.8595 17.4064C18.8595 17.2107 18.6203 16.9924 18.2764 16.9924C17.2062 16.9924 16.3354 16.1581 16.3354 15.1329C16.3354 14.3373 16.8626 13.662 17.5978 13.3971C17.5392 12.9375 17.8141 12.4759 18.2764 12.48C18.7387 12.4744 19.0134 12.9388 18.955 13.397C19.6907 13.6618 20.218 14.3371 20.218 15.1329C20.2038 16.0836 18.8756 16.0856 18.8609 15.1336C18.8609 14.9379 18.6216 14.7203 18.2777 14.7203C17.5141 14.7376 17.5129 15.5276 18.2763 15.5455ZM35.5541 17.5847V8.33427C35.5541 7.04703 34.5654 6 33.3508 6H3.20337C1.9887 6 1 7.04704 1 8.33427V24.8381C1 26.1289 1.9887 27.1787 3.20337 27.1787H25.3477V30.6681C25.3477 32.8555 28.7817 34 32.1739 34C35.5664 33.9999 39.0006 32.8555 39 30.6674V20.5087C39 19.0761 37.5236 18.0941 35.5541 17.5847ZM37.6429 27.284C36.7615 29.7859 27.5931 29.7899 26.7049 27.2841C26.7151 26.966 26.6976 26.2702 26.7049 25.9594C29.2952 27.5964 34.444 27.5909 37.1399 26.244C37.3253 26.1516 37.4912 26.0565 37.6428 25.9599L37.6429 27.284ZM31.4979 17.1928C28.3405 17.3344 25.3477 18.4668 25.3477 20.5087V22.8762H7.74596C7.71018 22.8762 7.67836 22.8232 7.66842 22.7808C7.38872 21.3784 6.28096 20.4433 5.05614 20.046C5.05619 20.0459 5.05619 13.1335 5.05619 13.1335C6.30247 12.702 7.36216 11.8475 7.66772 10.4028C7.67969 10.3513 7.71083 10.2969 7.74596 10.2969C7.83145 10.4049 28.6779 10.0977 28.647 10.3984C28.948 11.8535 30.1381 12.7457 31.498 13.1073C31.4979 13.1074 31.4979 17.1928 31.4979 17.1928ZM37.6429 23.8928C37.6429 24.203 37.23 24.6014 36.566 24.9328C34.4489 26.0471 29.8995 26.0478 27.783 24.9327C26.966 24.4902 26.6408 24.2049 26.7049 23.6137C26.7081 23.6042 26.7073 23.5951 26.7049 23.5856V22.5789C29.3343 24.2569 35.0134 24.2569 37.6429 22.5789V23.8928ZM37.6429 20.5087C37.6429 21.259 35.4614 22.3936 32.1739 22.3936C28.8864 22.3936 26.7049 21.259 26.7049 20.5087C26.7049 19.7584 28.8864 18.6237 32.1739 18.6237C35.4614 18.6237 37.6429 19.7584 37.6429 20.5087ZM3.20337 25.7318C2.73685 25.7318 2.35714 25.3312 2.35714 24.8381V8.33427C2.35714 7.84467 2.73685 7.44691 3.20337 7.44691H33.3508C33.8173 7.44691 34.197 7.84467 34.197 8.33427V17.3173C33.7583 17.256 33.3091 17.2136 32.8551 17.1931V13.1074C32.8551 12.3818 32.3528 11.7566 31.657 11.6195C30.7856 11.4521 30.1527 10.8664 29.9645 10.0518C29.8008 9.34457 29.229 8.85003 28.5742 8.85003H7.74596C7.08594 8.85003 6.5114 9.34811 6.34839 10.0652C6.17477 10.8466 5.58566 11.4669 4.83751 11.6485C4.16756 11.823 3.69905 12.4334 3.69905 13.1335V20.0459C3.69905 20.7546 4.17153 21.3636 4.84414 21.5261C5.58434 21.7104 6.17478 22.3343 6.34972 23.1213C6.5134 23.8285 7.08793 24.3231 7.74596 24.3231H25.3477V25.7318L3.20337 25.7318ZM32.1739 32.5531C28.8864 32.5531 26.7049 31.4185 26.7049 30.6681C26.7048 30.6676 26.7049 29.3507 26.7049 29.35C29.4989 31.0483 34.8479 31.0486 37.6429 29.3505C37.6429 29.3512 37.6428 30.6676 37.6429 30.6681C37.6429 31.4185 35.4614 32.5531 32.1739 32.5531Z" fill="url(#paint0_linear_82_6053)"/>
<defs>
<linearGradient id="paint0_linear_82_6053" x1="42.3386" y1="6.00001" x2="-4.7583" y2="11.1999" gradientUnits="userSpaceOnUse">
<stop stop-color="#E21D1D"/>
<stop offset="1" stop-color="#F2F2F2"/>
</linearGradient>
</defs>
</svg>
