<svg width="40" height="40" viewBox="0 0 40 40" fill="none" xmlns="http://www.w3.org/2000/svg">
<path d="M36.0626 4.4111C35.6227 4.36768 35.1797 4.45602 34.7929 4.6643C34.604 4.06815 34.1497 3.5862 33.5556 3.35171C32.9615 3.11722 32.2905 3.15504 31.7282 3.45471C31.4151 2.51144 30.4667 1.90963 29.4533 2.01113C28.7939 2.08406 28.2066 2.45068 27.8636 3.00352C27.351 2.63425 26.6945 2.50959 26.0767 2.66419C25.459 2.8188 24.9458 3.23618 24.6799 3.80031H18.6072C18.4946 3.7995 18.3845 3.76902 18.2884 3.71211L15.7953 2.26072C15.5086 2.09218 15.1805 2.00221 14.8456 2.00033H5.71371C4.58528 1.98562 3.62438 2.79548 3.47837 3.88431C3.43381 4.31247 3.5246 4.74367 3.73859 5.1203C3.12572 5.30382 2.63023 5.74588 2.3893 6.32409C2.14837 6.9023 2.18757 7.55529 2.49605 8.10227C1.5251 8.40579 0.90571 9.32994 1.01178 10.3168C1.08647 10.9586 1.46334 11.5301 2.03171 11.8636C1.71879 12.2836 1.57527 12.8007 1.62843 13.3168C1.71653 14.0342 2.17849 14.6567 2.85062 14.9638V20.8702C2.84954 20.9791 2.81799 21.0857 2.75936 21.1785L1.25474 23.6169C1.09099 23.8949 1.0035 24.2092 1.00068 24.5295V33.4148C0.986478 34.5126 1.8188 35.4469 2.93757 35.5892C3.37736 35.6314 3.81999 35.5432 4.20724 35.336C4.39601 35.9324 4.85046 36.4145 5.44481 36.6489C6.03915 36.8833 6.71034 36.8452 7.27259 36.545C7.55829 37.4132 8.38854 38.0016 9.3254 38C10.0688 38.0002 10.7573 37.6192 11.1371 36.9974C11.6503 37.3667 12.3071 37.4912 12.9253 37.3365C13.5434 37.1818 14.0569 36.7644 14.3233 36.2H20.393C20.5055 36.2008 20.6157 36.2313 20.7118 36.2882L23.2049 37.7408C23.4917 37.9087 23.8198 37.9981 24.1545 37.9994H33.2864C34.4148 38.0141 35.3757 37.2042 35.5218 36.1154C35.5662 35.6874 35.4754 35.2565 35.2615 34.88C35.8744 34.6965 36.3699 34.2544 36.6108 33.6762C36.8518 33.098 36.8126 32.445 36.5041 31.8981C37.4745 31.5946 38.0938 30.6712 37.9883 29.6847C37.9137 29.0429 37.5368 28.4714 36.9684 28.1379C37.2813 27.7179 37.4248 27.2008 37.3717 26.6847C37.2829 25.9682 36.821 25.3467 36.1495 25.0401V19.1302C36.1508 19.021 36.1821 18.9141 36.2402 18.8206L37.7337 16.3954C37.9062 16.1161 37.9981 15.7967 37.9994 15.4708V6.58548C38.0136 5.48775 37.1813 4.55338 36.0626 4.4111ZM2.23891 10.198C2.21034 9.94375 2.29434 9.68964 2.46991 9.49923C2.64548 9.30882 2.89603 9.20011 3.15894 9.20026H7.16714C7.50771 9.20026 7.78379 8.93163 7.78379 8.60026C7.78379 8.2689 7.50771 8.00027 7.16714 8.00027H4.39224C4.12936 8.00088 3.87864 7.89263 3.70272 7.70257C3.5268 7.51251 3.44231 7.25859 3.47035 7.00428C3.54926 6.5261 3.98308 6.18079 4.48042 6.20029H8.40043C8.741 6.20029 9.01708 5.93166 9.01708 5.60029C9.01708 5.26892 8.741 5.0003 8.40043 5.0003H5.62553C5.36265 5.0009 5.11193 4.89265 4.93602 4.70259C4.7601 4.51253 4.6756 4.25862 4.70364 4.00431C4.7823 3.52599 5.21627 3.18055 5.71371 3.20031H14.8456C14.958 3.20114 15.068 3.23185 15.1638 3.28911L17.6575 4.7423C17.9445 4.90972 18.2725 4.99884 18.6072 5.0003H24.4332V10.3336L23.3652 9.48286C22.5637 8.88765 21.4364 8.94795 20.7068 9.62505C20.1651 10.1362 19.9768 10.9065 20.224 11.6002H18.1564C17.6711 11.6022 17.206 11.7897 16.8614 12.1222L11.0582 17.7226L11.0458 17.7346L10.7893 17.9818C10.4885 18.2679 10.0069 18.2647 9.71019 17.9746C9.43935 17.71 9.41293 17.2908 9.64853 16.996L11.3443 14.98C11.4951 14.8006 11.5262 14.5527 11.4241 14.3432C11.3221 14.1338 11.1052 14.0002 10.867 14.0002H3.86377C3.36723 14.0191 2.93441 13.6742 2.85555 13.1968C2.82736 12.9427 2.91153 12.6889 3.08706 12.4988C3.26259 12.3087 3.51292 12.2001 3.77559 12.2002H7.16714C7.50771 12.2002 7.78379 11.9316 7.78379 11.6002C7.78379 11.2689 7.50771 11.0002 7.16714 11.0002H3.24712C2.75108 11.0189 2.31857 10.6748 2.23891 10.198ZM26.8998 21.5943L21.2698 27.0267C21.1566 27.1368 21.0032 27.1989 20.8431 27.1995H17.861L12.2785 21.7239C12.165 21.6137 12.101 21.4642 12.1003 21.3081V18.4042L17.7284 12.9736C17.8419 12.863 17.9958 12.8006 18.1564 12.8002H21.141L26.7235 18.2758C26.8361 18.3867 26.8994 18.5362 26.8998 18.6922V21.5943ZM12.5024 36.1952C12.2427 36.2225 11.9835 36.1404 11.7901 35.9696C11.5959 35.7982 11.4846 35.5552 11.4837 35.3V35.291V32C11.4837 31.6687 11.2076 31.4001 10.867 31.4001C10.5265 31.4001 10.2504 31.6687 10.2504 32V35.3V35.3084V35.8154C10.2673 36.3003 9.90983 36.7212 9.41728 36.7964C9.15819 36.8238 8.89947 36.7417 8.70691 36.5708C8.51218 36.3992 8.4009 36.1556 8.40043 35.9V34.7V34.688V32C8.40043 31.6687 8.12435 31.4001 7.78379 31.4001C7.44322 31.4001 7.16714 31.6687 7.16714 32V34.7V34.7072C7.1655 34.9616 7.05326 35.2035 6.8582 35.3729C6.66315 35.5424 6.4035 35.6236 6.14351 35.5964C5.65216 35.5199 5.29721 35.098 5.3172 34.6142V33.5V33.491V30.8001C5.3172 30.4687 5.04112 30.2001 4.70056 30.2001C4.35999 30.2001 4.08391 30.4687 4.08391 30.8001V33.5V33.5054C4.08277 33.76 3.97084 34.0023 3.77586 34.1721C3.58088 34.3419 3.3211 34.4234 3.0609 34.3964C2.56969 34.32 2.21462 33.8985 2.23397 33.4148V24.5295C2.23492 24.4214 2.26399 24.3153 2.31846 24.2211L3.81875 21.7935C3.99047 21.5144 4.08204 21.1955 4.08391 20.8702V15.2002H9.56466L8.68964 16.24C8.12552 16.9076 8.08539 17.8585 8.59137 18.5689C9.09735 19.2792 10.0265 19.5765 10.867 19.297V21.3081C10.8691 21.7804 11.0617 22.2329 11.4035 22.5681L17.1543 28.2081C17.1611 28.2153 17.1679 28.2219 17.1753 28.2285L17.4263 28.4745C17.6423 28.6885 17.7052 29.0078 17.5857 29.2843C17.4661 29.5608 17.1876 29.7405 16.8793 29.7399C16.7115 29.7406 16.5484 29.6858 16.4168 29.5845L14.3455 27.9351C14.1611 27.7853 13.9041 27.7532 13.6869 27.8531C13.4697 27.9529 13.3318 28.1663 13.3336 28.4001V35.2142C13.3507 35.6985 12.9942 36.1192 12.5024 36.1952ZM36.7612 29.8023C36.7898 30.0566 36.7058 30.3107 36.5302 30.5011C36.3546 30.6915 36.1041 30.8002 35.8412 30.8001H31.833C31.4924 30.8001 31.2163 31.0687 31.2163 31.4001C31.2163 31.7314 31.4924 32 31.833 32H34.6079C34.8708 31.9994 35.1215 32.1077 35.2974 32.2978C35.4733 32.4878 35.5578 32.7417 35.5298 32.996C35.4509 33.4742 35.017 33.8195 34.5197 33.8H30.5997C30.2591 33.8 29.983 34.0687 29.983 34.4C29.983 34.7314 30.2591 35 30.5997 35H33.3746C33.6375 34.9994 33.8882 35.1077 34.0641 35.2977C34.24 35.4878 34.3245 35.7417 34.2965 35.996C34.2178 36.4743 33.7838 36.8198 33.2864 36.8H24.1545C24.0421 36.7992 23.9321 36.7685 23.8363 36.7112L21.3426 35.258C21.0556 35.0906 20.7276 35.0015 20.393 35H14.5669V29.6655L15.6349 30.5163C16.4357 31.1138 17.5647 31.0534 18.2933 30.3741C18.8352 29.8635 19.0242 29.0938 18.778 28.4001H20.8437C21.329 28.3981 21.7941 28.2106 22.1387 27.8781L27.9401 22.2801L27.9617 22.2597L28.2127 22.0197C28.5135 21.7336 28.995 21.7368 29.2918 22.0269C29.5626 22.2915 29.589 22.7108 29.3534 23.0055L27.6577 25.0215C27.5079 25.2007 27.4771 25.4477 27.5786 25.6565C27.68 25.8654 27.8957 25.999 28.1331 26.0001H35.1364C35.6329 25.9812 36.0657 26.3261 36.1446 26.8035C36.1728 27.0576 36.0886 27.3114 35.9131 27.5015C35.7375 27.6916 35.4872 27.8002 35.2245 27.8001H31.833C31.4924 27.8001 31.2163 28.0687 31.2163 28.4001C31.2163 28.7314 31.4924 29.0001 31.833 29.0001H35.7549C36.2502 28.9823 36.6816 29.3262 36.7612 29.8023ZM36.7662 15.4708C36.7652 15.5801 36.7339 15.687 36.6755 15.7804L35.1814 18.2068C35.0094 18.4858 34.9178 18.8048 34.9162 19.1302V24.8001H29.4336L30.3086 23.7603C30.9438 22.9879 30.8803 21.8743 30.1613 21.1749C29.6226 20.672 28.8437 20.4974 28.1331 20.7202V18.6922C28.1311 18.22 27.9384 17.7674 27.5966 17.4322L21.8433 11.7838L21.8316 11.7724L21.5769 11.5228C21.4324 11.384 21.3517 11.1942 21.3531 10.9966C21.3545 10.799 21.4379 10.6104 21.5843 10.4734C21.86 10.2176 22.285 10.1922 22.5907 10.4134L24.662 12.0628C24.8462 12.2079 25.0995 12.2374 25.3137 12.1387C25.5279 12.0401 25.665 11.8308 25.6665 11.6002V4.7861C25.6474 4.30286 26.0021 3.88181 26.4928 3.80511C26.7539 3.77786 27.0145 3.85984 27.2098 4.03061C27.4051 4.20137 27.5166 4.44484 27.5165 4.7003V8.00027C27.5165 8.33164 27.7925 8.60026 28.1331 8.60026C28.4737 8.60026 28.7498 8.33164 28.7498 8.00027V4.18611C28.7304 3.70278 29.0852 3.28157 29.5761 3.20511C29.8371 3.17786 30.0978 3.25984 30.293 3.43061C30.4883 3.60138 30.5998 3.84484 30.5997 4.10031V8.00027C30.5997 8.33164 30.8758 8.60026 31.2163 8.60026C31.5569 8.60026 31.833 8.33164 31.833 8.00027V5.30029C31.8325 5.04463 31.9439 4.80084 32.1392 4.6298C32.3345 4.45877 32.5953 4.37663 32.8566 4.4039C33.348 4.48041 33.7029 4.90232 33.6829 5.38609V9.20026C33.6829 9.53163 33.959 9.80025 34.2996 9.80025C34.6401 9.80025 34.9162 9.53163 34.9162 9.20026V6.50028C34.9158 6.24461 35.0271 6.00082 35.2224 5.82979C35.4177 5.65876 35.6786 5.57662 35.9398 5.60389C36.4308 5.68062 36.7855 6.10202 36.7662 6.58548V15.4708Z" fill="url(#paint0_linear_82_6038)"/>
<defs>
<linearGradient id="paint0_linear_82_6038" x1="41.2507" y1="2.00001" x2="-4.84351" y2="5.85409" gradientUnits="userSpaceOnUse">
<stop stop-color="#E21D1D"/>
<stop offset="1" stop-color="#F2F2F2"/>
</linearGradient>
</defs>
</svg>
