<svg width="40" height="40" viewBox="0 0 40 40" fill="none" xmlns="http://www.w3.org/2000/svg">
<g clip-path="url(#clip0_82_6061)">
<path d="M3.00445 40H14.5132C15.1072 39.9975 15.6783 39.7707 16.1123 39.3651C16.5462 38.9595 16.811 38.4049 16.8535 37.8125C17.1498 33.56 16.7516 29.6503 15.7323 26.76C18.1385 23.9162 21.031 19.9865 19.6166 17.7215C19.2154 17.0784 18.2538 16.1509 17.2485 16.2443C16.2735 16.3312 15.7748 17.1428 15.1966 18.0825C14.5435 19.26 12.7876 21.4215 11.337 21.6112C10.8492 21.5977 10.3626 21.5566 9.87945 21.4881C8.55342 21.2941 7.19995 21.4323 5.94055 21.8905C4.68114 22.3486 3.55521 23.1124 2.66383 24.1131C-1.06992 28.2747 0.0628886 35.3462 0.723201 38.1937C0.841851 38.7091 1.13238 39.1687 1.54699 39.497C1.96161 39.8253 2.47561 40.0027 3.00445 40ZM3.36258 24.7375C4.15194 23.8526 5.14845 23.1773 6.26287 22.7721C7.3773 22.3668 8.57482 22.2444 9.7482 22.4156C10.2662 22.4888 10.7878 22.5328 11.3107 22.5475C13.2045 22.4537 15.1929 19.9634 15.9938 18.5728C16.5251 17.7103 16.8476 17.22 17.3304 17.1772C17.852 17.1275 18.5291 17.7509 18.8201 18.2168C19.3685 19.0959 19.1798 21.119 15.3388 25.7643C15.2382 25.5343 15.1345 25.315 15.0282 25.1081C15.0006 25.0524 14.9623 25.0027 14.9153 24.9619C14.8684 24.9212 14.8138 24.8902 14.7548 24.8707C14.6957 24.8512 14.6334 24.8437 14.5714 24.8486C14.5095 24.8534 14.4491 24.8705 14.3938 24.899C14.3385 24.9274 14.2894 24.9665 14.2494 25.0141C14.2093 25.0616 14.1792 25.1167 14.1606 25.176C14.1421 25.2353 14.1355 25.2978 14.1413 25.3597C14.1471 25.4216 14.1652 25.4817 14.1945 25.5365C15.8416 28.9915 16.1907 32.8006 15.917 37.7465C15.8917 38.1028 15.7327 38.4363 15.4719 38.6803C15.2112 38.9243 14.8678 39.0608 14.5107 39.0625H5.96914C4.89101 35.75 4.50664 32.9328 4.83883 30.6937C4.85003 30.6319 4.8487 30.5685 4.8349 30.5072C4.82111 30.4459 4.79514 30.388 4.75853 30.3369C4.72192 30.2859 4.67542 30.2427 4.6218 30.21C4.56817 30.1773 4.50852 30.1556 4.44638 30.1464C4.38424 30.1372 4.32088 30.1406 4.26006 30.1563C4.19925 30.1721 4.14222 30.1999 4.09237 30.2381C4.04251 30.2763 4.00085 30.3242 3.96986 30.3788C3.93887 30.4335 3.91917 30.4938 3.91195 30.5562C3.5682 32.8734 3.92726 35.7331 4.98008 39.0625H3.00445C2.68759 39.0644 2.37949 38.9585 2.13084 38.7621C1.88218 38.5657 1.70778 38.2905 1.63633 37.9818C1.00945 35.2771 -0.0780491 28.5722 3.36258 24.7375Z" fill="url(#paint0_linear_82_6061)"/>
<path d="M8.75 12.1875C7.91561 12.1875 7.09996 12.4349 6.40619 12.8985C5.71242 13.3621 5.17169 14.0209 4.85239 14.7918C4.53308 15.5627 4.44953 16.4109 4.61231 17.2293C4.7751 18.0476 5.17689 18.7994 5.7669 19.3894C6.3569 19.9794 7.10861 20.3812 7.92696 20.5439C8.74532 20.7067 9.59357 20.6232 10.3644 20.3039C11.1353 19.9846 11.7942 19.4438 12.2578 18.7501C12.7213 18.0563 12.9688 17.2406 12.9688 16.4062C12.9675 15.2877 12.5226 14.2154 11.7317 13.4245C10.9408 12.6336 9.8685 12.1887 8.75 12.1875ZM8.75 19.6875C8.10103 19.6875 7.46664 19.4951 6.92704 19.1345C6.38744 18.774 5.96687 18.2615 5.71852 17.6619C5.47017 17.0624 5.40519 16.4026 5.5318 15.7661C5.65841 15.1296 5.97092 14.5449 6.42981 14.0861C6.8887 13.6272 7.47336 13.3147 8.10986 13.188C8.74636 13.0614 9.40611 13.1264 10.0057 13.3748C10.6053 13.6231 11.1177 14.0437 11.4783 14.5833C11.8388 15.1229 12.0313 15.7573 12.0313 16.4062C12.0303 17.2762 11.6842 18.1102 11.0691 18.7253C10.454 19.3405 9.61994 19.6865 8.75 19.6875Z" fill="url(#paint1_linear_82_6061)"/>
<path d="M23.148 37.8125C23.1905 38.4049 23.4553 38.9595 23.8892 39.3651C24.3232 39.7707 24.8943 39.9975 25.4883 40H36.9971C37.5259 40.0027 38.0399 39.8253 38.4545 39.497C38.8691 39.1687 39.1596 38.7091 39.2783 38.1937C39.9386 35.3462 41.0714 28.2746 37.3377 24.1121C36.4463 23.1114 35.3204 22.3477 34.061 21.8895C32.8015 21.4314 31.4481 21.2931 30.1221 21.4872C29.6389 21.5556 29.1523 21.5967 28.6645 21.6103C27.2139 21.4206 25.458 19.259 24.8049 18.0815C24.2267 17.1418 23.728 16.3315 22.753 16.2434C21.7477 16.1497 20.7861 17.0775 20.3849 17.7206C18.9705 19.9856 21.8633 23.9147 24.2692 26.759C23.2511 29.6493 22.8517 33.559 23.148 37.8125ZM25.8042 25.5375C25.8335 25.4826 25.8516 25.4225 25.8574 25.3606C25.8632 25.2987 25.8566 25.2363 25.8381 25.1769C25.8195 25.1176 25.7893 25.0626 25.7493 25.015C25.7093 24.9674 25.6602 24.9283 25.6049 24.8999C25.5496 24.8715 25.4892 24.8544 25.4272 24.8495C25.3653 24.8447 25.303 24.8522 25.2439 24.8716C25.1849 24.8911 25.1303 24.9221 25.0834 24.9629C25.0364 25.0036 24.998 25.0533 24.9705 25.109C24.8642 25.3159 24.7605 25.5353 24.6599 25.7653C20.8189 21.12 20.6286 19.0968 21.1786 18.2178C21.4695 17.7518 22.1474 17.1284 22.6683 17.1781C23.1511 17.2209 23.4745 17.7112 24.0049 18.5737C24.8058 19.9643 26.7942 22.4559 28.688 22.5484C29.2109 22.5338 29.7325 22.4897 30.2505 22.4165C31.4239 22.2453 32.6214 22.3678 33.7358 22.773C34.8502 23.1782 35.8468 23.8535 36.6361 24.7384C40.0767 28.5731 38.9892 35.2781 38.3624 37.9828C38.2908 38.2908 38.1168 38.5654 37.8687 38.7616C37.6206 38.9578 37.3133 39.0639 36.9971 39.0625H35.0214C36.0742 35.7331 36.4339 32.8734 36.0896 30.5562C36.0823 30.4938 36.0626 30.4335 36.0316 30.3788C36.0007 30.3242 35.959 30.2763 35.9091 30.2381C35.8593 30.1999 35.8023 30.1721 35.7414 30.1563C35.6806 30.1406 35.6173 30.1372 35.5551 30.1464C35.493 30.1556 35.4333 30.1773 35.3797 30.21C35.3261 30.2427 35.2796 30.2859 35.243 30.3369C35.2064 30.388 35.1804 30.4459 35.1666 30.5072C35.1528 30.5685 35.1515 30.6319 35.1627 30.6937C35.4949 32.9328 35.1105 35.7503 34.0324 39.0625H25.4883C25.1311 39.061 24.7877 38.9245 24.5269 38.6805C24.2661 38.4364 24.1072 38.1028 24.082 37.7465C23.8092 32.8006 24.1574 28.9915 25.8055 25.5365L25.8042 25.5375Z" fill="url(#paint2_linear_82_6061)"/>
<path d="M27.0312 16.4062C27.0312 17.2406 27.2787 18.0563 27.7422 18.7501C28.2058 19.4438 28.8647 19.9846 29.6356 20.3039C30.4064 20.6232 31.2547 20.7067 32.073 20.5439C32.8914 20.3812 33.6431 19.9794 34.2331 19.3894C34.8231 18.7994 35.2249 18.0476 35.3877 17.2293C35.5505 16.4109 35.4669 15.5627 35.1476 14.7918C34.8283 14.0209 34.2876 13.3621 33.5938 12.8985C32.9 12.4349 32.0844 12.1875 31.25 12.1875C30.1315 12.1887 29.0592 12.6336 28.2683 13.4245C27.4774 14.2154 27.0325 15.2877 27.0312 16.4062ZM34.5312 16.4062C34.5312 17.0552 34.3388 17.6896 33.9783 18.2292C33.6177 18.7688 33.1052 19.1894 32.5057 19.4377C31.9061 19.6861 31.2464 19.7511 30.6099 19.6245C29.9734 19.4978 29.3887 19.1853 28.9298 18.7264C28.4709 18.2676 28.1584 17.6829 28.0318 17.0464C27.9052 16.4099 27.9702 15.7501 28.2185 15.1506C28.4669 14.551 28.8874 14.0385 29.427 13.678C29.9666 13.3174 30.601 13.125 31.25 13.125C32.1199 13.126 32.954 13.472 33.5691 14.0872C34.1842 14.7023 34.5303 15.5363 34.5312 16.4062Z" fill="url(#paint3_linear_82_6061)"/>
<path d="M13.9699 8.11621L10.3258 4.47308C10.1812 4.3268 10.009 4.21053 9.81931 4.13093C9.62959 4.05134 9.42603 4.01 9.22029 4.00929C9.01456 4.00857 8.81071 4.04849 8.62044 4.12675C8.43017 4.20502 8.25724 4.32009 8.11155 4.46536C7.96587 4.61063 7.85031 4.78324 7.77151 4.97329C7.6927 5.16333 7.65221 5.36707 7.65234 5.57281C7.65248 5.77854 7.69324 5.98222 7.7723 6.17217C7.85135 6.36211 7.96714 6.53457 8.11301 6.67964L11.7511 10.3187C12.0432 10.6129 12.4402 10.7791 12.8548 10.7806C13.2693 10.7821 13.6675 10.6189 13.9618 10.3268C14.256 10.0348 14.4221 9.63778 14.4237 9.2232C14.4252 8.80863 14.262 8.41043 13.9699 8.11621ZM13.3002 9.66996C13.1797 9.77883 13.0227 9.8385 12.8604 9.83717C12.698 9.83584 12.542 9.7736 12.4233 9.66277L8.76895 6.00996C8.65267 5.89181 8.58808 5.73231 8.5894 5.56655C8.59005 5.48447 8.60687 5.40332 8.63888 5.32774C8.67089 5.25216 8.71748 5.18363 8.77598 5.12605C8.83448 5.06847 8.90375 5.02298 8.97983 4.99218C9.05591 4.96137 9.13731 4.94585 9.21939 4.9465C9.38515 4.94782 9.5436 5.01494 9.65989 5.13308L13.3136 8.78589C13.427 8.90609 13.4888 9.06581 13.486 9.23098C13.4832 9.39615 13.416 9.55368 13.2986 9.66996H13.3002Z" fill="url(#paint4_linear_82_6061)"/>
<path d="M26.0399 10.3328C26.337 10.6195 26.7345 10.7786 27.1474 10.776C27.5603 10.7734 27.9558 10.6092 28.2493 10.3187L31.8883 6.67964C32.0342 6.53457 32.15 6.36211 32.229 6.17217C32.3081 5.98222 32.3488 5.77854 32.349 5.57281C32.3491 5.36707 32.3086 5.16333 32.2298 4.97329C32.151 4.78324 32.0355 4.61063 31.8898 4.46536C31.7441 4.32009 31.5712 4.20502 31.3809 4.12675C31.1906 4.04849 30.9868 4.00857 30.781 4.00929C30.5753 4.01 30.3717 4.05134 30.182 4.13093C29.9923 4.21053 29.8202 4.3268 29.6755 4.47308L26.033 8.11621C25.7427 8.4125 25.5808 8.81112 25.582 9.2259C25.5833 9.64067 25.7478 10.0383 26.0399 10.3328ZM26.6886 8.78589L30.3414 5.13308C30.4577 5.01494 30.6162 4.94782 30.7819 4.9465C30.9477 4.94519 31.1072 5.00977 31.2253 5.12605C31.3435 5.24233 31.4106 5.40078 31.4119 5.56655C31.4132 5.73231 31.3487 5.89181 31.2324 6.00996L27.5796 9.66277C27.4609 9.7736 27.3049 9.83584 27.1425 9.83717C26.9801 9.8385 26.8232 9.77883 26.7027 9.66996C26.5853 9.55368 26.5181 9.39615 26.5153 9.23098C26.5125 9.06581 26.5744 8.90609 26.6877 8.78589H26.6886Z" fill="url(#paint5_linear_82_6061)"/>
<path d="M20 8.35926C20.4119 8.34799 20.8037 8.17895 21.0945 7.88706C21.3852 7.59517 21.5528 7.20272 21.5625 6.79082C21.5312 5.49863 21.5334 2.91895 21.5625 1.64551C21.5625 1.23111 21.3979 0.833679 21.1049 0.540653C20.8118 0.247628 20.4144 0.0830078 20 0.0830078C19.5856 0.0830078 19.1882 0.247628 18.8951 0.540653C18.6021 0.833679 18.4375 1.23111 18.4375 1.64551C18.4663 2.90988 18.4688 5.48926 18.4375 6.79082C18.4471 7.20277 18.6146 7.5953 18.9054 7.88723C19.1962 8.17915 19.5881 8.34814 20 8.35926ZM19.375 1.63582C19.375 1.47006 19.4408 1.31109 19.5581 1.19388C19.6753 1.07667 19.8342 1.01082 20 1.01082C20.1658 1.01082 20.3247 1.07667 20.4419 1.19388C20.5592 1.31109 20.625 1.47006 20.625 1.63582C20.5963 2.91395 20.5938 5.50426 20.625 6.80269C20.625 6.96846 20.5592 7.12743 20.4419 7.24464C20.3247 7.36185 20.1658 7.42769 20 7.42769C19.8342 7.42769 19.6753 7.36185 19.5581 7.24464C19.4408 7.12743 19.375 6.96846 19.375 6.80269C19.4062 5.49332 19.4031 2.90613 19.375 1.63582Z" fill="url(#paint6_linear_82_6061)"/>
</g>
<defs>
<linearGradient id="paint0_linear_82_6061" x1="21.7433" y1="16.2378" x2="-3.17833" y2="17.9407" gradientUnits="userSpaceOnUse">
<stop stop-color="#E21D1D"/>
<stop offset="1" stop-color="#F2F2F2"/>
</linearGradient>
<linearGradient id="paint1_linear_82_6061" x1="13.71" y1="12.1875" x2="3.1948" y2="13.043" gradientUnits="userSpaceOnUse">
<stop stop-color="#E21D1D"/>
<stop offset="1" stop-color="#F2F2F2"/>
</linearGradient>
<linearGradient id="paint2_linear_82_6061" x1="41.7237" y1="16.2368" x2="16.8021" y2="17.9397" gradientUnits="userSpaceOnUse">
<stop stop-color="#E21D1D"/>
<stop offset="1" stop-color="#F2F2F2"/>
</linearGradient>
<linearGradient id="paint3_linear_82_6061" x1="36.21" y1="12.1875" x2="25.6948" y2="13.043" gradientUnits="userSpaceOnUse">
<stop stop-color="#E21D1D"/>
<stop offset="1" stop-color="#F2F2F2"/>
</linearGradient>
<linearGradient id="paint4_linear_82_6061" x1="15.0186" y1="4.00928" x2="6.57981" y2="4.6958" gradientUnits="userSpaceOnUse">
<stop stop-color="#E21D1D"/>
<stop offset="1" stop-color="#F2F2F2"/>
</linearGradient>
<linearGradient id="paint5_linear_82_6061" x1="32.9435" y1="4.00928" x2="24.5102" y2="4.69538" gradientUnits="userSpaceOnUse">
<stop stop-color="#E21D1D"/>
<stop offset="1" stop-color="#F2F2F2"/>
</linearGradient>
<linearGradient id="paint6_linear_82_6061" x1="21.8371" y1="0.0830105" x2="17.9204" y2="0.203321" gradientUnits="userSpaceOnUse">
<stop stop-color="#E21D1D"/>
<stop offset="1" stop-color="#F2F2F2"/>
</linearGradient>
<clipPath id="clip0_82_6061">
<rect width="40" height="40" fill="white"/>
</clipPath>
</defs>
</svg>
