<svg width="72" height="72" viewBox="0 0 72 72" fill="none" xmlns="http://www.w3.org/2000/svg">
<g clip-path="url(#clip0_82_6021)">
<path d="M41.5979 61.7675H44.2162V69.6517C44.2162 70.9487 45.2702 72 46.5703 72H69.6125C70.8202 72 71.8154 71.0928 71.951 69.9243V46.3934C71.8156 45.2246 70.8202 44.3146 69.6125 44.3146H61.709V41.7061C61.709 39.7132 60.0894 38.0975 58.0914 38.0975C56.0934 38.0975 54.4738 39.7132 54.4738 41.7061V44.3146H46.5703C45.2702 44.3146 44.2162 45.3693 44.2162 46.6661V54.5502H41.5979C39.6 54.5502 37.9805 56.1659 37.9805 58.1588C37.9805 60.1519 39.6 61.7675 41.5979 61.7675Z" fill="url(#paint0_linear_82_6021)"/>
<path d="M58.3347 3.31988C58.1153 1.4272 56.5095 0 54.5994 0H31.5571C30.651 0 29.8186 0.32175 29.1686 0.856687C28.5274 0.351422 27.7205 0.0489375 26.8493 0.0489375H3.80719C1.73367 0.0489375 0.046875 1.7332 0.046875 3.80348V26.7891C0.046875 27.6794 0.357797 28.4984 0.876703 29.1433C0.357797 29.7876 0.046875 30.6059 0.046875 31.4955V54.4809C0.046875 56.5512 1.73381 58.2355 3.80719 58.2355H26.8493C28.9228 58.2355 30.6097 56.5512 30.6097 54.4735C30.6097 54.4642 30.6096 54.4411 30.6093 54.4319V46.5477C30.6093 45.771 29.9798 45.1415 29.2031 45.1415H26.5848C25.3656 45.1415 24.3735 44.1536 24.3735 42.9391C24.3735 41.7247 25.3654 40.7368 26.5848 40.7368H29.2031C29.9798 40.7368 30.6093 40.1072 30.6093 39.3306V31.4537C30.6093 31.4456 30.6093 31.4374 30.6092 31.4291C30.6024 31.0448 30.5369 30.6741 30.4212 30.3255C30.7796 30.4394 31.161 30.5009 31.5566 30.501C31.5612 30.501 31.5659 30.501 31.5706 30.5009H39.4608C40.2375 30.5009 40.8671 29.8713 40.8671 29.0946V26.4862C40.8671 25.2717 41.8591 24.2838 43.0784 24.2838C44.2978 24.2838 45.2897 25.2717 45.2897 26.4862V29.0946C45.2897 29.8713 45.9195 30.5009 46.696 30.5009H54.5862C54.5908 30.501 54.5955 30.501 54.6001 30.501H54.6007C56.5098 30.5004 58.1152 29.0704 58.3348 27.1745C58.341 27.1208 58.3441 27.0668 58.3441 27.0128V3.48187C58.344 3.42773 58.3409 3.37373 58.3347 3.31988ZM2.85938 3.80363C2.85938 3.28416 3.28448 2.86158 3.80719 2.86158H26.8493C27.3598 2.86158 27.7829 3.2715 27.7968 3.77719V10.2326H26.5848C23.8146 10.2326 21.561 12.4823 21.561 15.2474C21.561 18.0125 23.8146 20.2622 26.5848 20.2622H27.7968V26.7401C27.7968 26.7574 27.797 26.7749 27.7972 26.7922C27.7957 27.3139 27.371 27.7379 26.8494 27.7379H20.3521V26.5357C20.3521 23.7704 18.0985 21.5207 15.3283 21.5207C12.5581 21.5207 10.3045 23.7703 10.3045 26.5357V27.7379H3.80719C3.28448 27.7379 2.85938 27.3123 2.85938 26.7892V3.80363ZM27.7968 37.9243H26.5848C23.8146 37.9243 21.561 40.1739 21.561 42.9391C21.561 45.7044 23.8146 47.954 26.5848 47.954H27.7968V54.4319L27.7972 54.4809C27.7972 55.0004 27.3719 55.423 26.8492 55.423H3.80719C3.28448 55.423 2.85938 55.0004 2.85938 54.4809V31.4955C2.85938 30.9742 3.28448 30.5502 3.80719 30.5502H11.7107C12.4874 30.5502 13.117 29.9206 13.117 29.144V26.5355C13.117 25.3211 14.109 24.333 15.3283 24.333C16.5477 24.333 17.5396 25.3211 17.5396 26.5355V29.144C17.5396 29.9206 18.1692 30.5502 18.9459 30.5502H26.8494C27.3598 30.5502 27.7829 30.9614 27.797 31.4688L27.7968 37.9243ZM55.5315 26.9135C55.4502 27.3568 55.0646 27.6844 54.6087 27.6885H48.1021V26.4863C48.1021 23.721 45.8484 21.4715 43.0783 21.4715C40.3082 21.4715 38.0544 23.7212 38.0544 26.4863V27.6885H31.5481C31.0378 27.6837 30.6224 27.2732 30.6095 26.7645C30.6095 26.7552 30.6093 26.7453 30.6092 26.74V18.8558C30.6092 18.0792 29.9796 17.4496 29.2029 17.4496H26.5846C25.3654 17.4496 24.3733 16.4617 24.3733 15.2473C24.3733 14.0328 25.3653 13.0449 26.5846 13.0449H29.2029C29.9796 13.0449 30.6092 12.4154 30.6092 11.6387V3.75455C30.6092 3.23508 31.0344 2.8125 31.557 2.8125H54.5993C55.0595 2.8125 55.4497 3.13889 55.5313 3.5813V26.9135H55.5315Z" fill="url(#paint1_linear_82_6021)"/>
</g>
<defs>
<linearGradient id="paint0_linear_82_6021" x1="74.9355" y1="38.0975" x2="32.6009" y2="41.5485" gradientUnits="userSpaceOnUse">
<stop stop-color="#E21D1D"/>
<stop offset="1" stop-color="#F2F2F2"/>
</linearGradient>
<linearGradient id="paint1_linear_82_6021" x1="63.4659" y1="1.88863e-05" x2="-9.18605" y2="5.91676" gradientUnits="userSpaceOnUse">
<stop stop-color="#E21D1D"/>
<stop offset="1" stop-color="#F2F2F2"/>
</linearGradient>
<clipPath id="clip0_82_6021">
<rect width="72" height="72" fill="white"/>
</clipPath>
</defs>
</svg>
