<svg width="72" height="72" viewBox="0 0 72 72" fill="none" xmlns="http://www.w3.org/2000/svg">
<path fill-rule="evenodd" clip-rule="evenodd" d="M38.9283 13.5527C38.2502 14.2327 37.3572 14.6565 36.4016 14.7517C35.4459 14.847 34.4868 14.6079 33.6878 14.0752C32.8887 13.5424 32.2991 12.7491 32.0196 11.8303C31.74 10.9115 31.7877 9.92424 32.1547 9.03673C32.5216 8.14921 33.1849 7.41642 34.0316 6.96327C34.8784 6.51012 35.8561 6.36466 36.798 6.5517C37.74 6.73873 38.588 7.24667 39.1973 7.98893C39.8067 8.73119 40.1398 9.66183 40.1398 10.6222C40.1413 11.1664 40.0351 11.7056 39.8271 12.2086C39.6192 12.7116 39.3137 13.1684 38.9283 13.5527Z" fill="url(#paint0_linear_82_6028)"/>
<path fill-rule="evenodd" clip-rule="evenodd" d="M28.1965 25.3808C28.1892 25.3071 28.1843 25.2332 28.1785 25.1596C28.1629 24.9587 28.1563 24.7572 28.1563 24.556C28.1519 23.523 28.3516 22.4993 28.7439 21.5436C29.1362 20.588 29.7134 19.7193 30.4423 18.9873C31.1712 18.2553 32.0375 17.6744 32.9915 17.2781C33.9454 16.8818 34.9683 16.6777 36.0013 16.6777C37.0343 16.6777 38.0572 16.8818 39.0111 17.2781C39.9651 17.6744 40.8314 18.2553 41.5603 18.9873C42.2892 19.7193 42.8664 20.588 43.2587 21.5436C43.651 22.4993 43.8506 23.523 43.8463 24.556C43.8463 24.7574 43.8374 24.9585 43.8232 25.1594C43.818 25.2334 43.8114 25.3071 43.8041 25.3808V25.3851L43.8006 25.3878C41.5488 27.0718 38.8126 27.9818 36.0008 27.9818C33.189 27.9818 30.4528 27.0718 28.201 25.3878L28.1974 25.3851L28.1965 25.3808Z" fill="url(#paint1_linear_82_6028)"/>
<path fill-rule="evenodd" clip-rule="evenodd" d="M55.363 33.0381C55.3539 33.0118 55.3467 32.9844 55.3378 32.9576L54.8867 31.5514L61.4098 29.4656L67.6567 48.9643L61.1317 51.0596L55.363 33.0381Z" fill="url(#paint2_linear_82_6028)"/>
<path fill-rule="evenodd" clip-rule="evenodd" d="M10.2982 50.0666L4.38672 46.6206L14.7162 28.9323L20.6267 32.3883L10.2982 50.0666Z" fill="url(#paint3_linear_82_6028)"/>
<path fill-rule="evenodd" clip-rule="evenodd" d="M21.5124 55.3069C21.6502 55.1703 21.7595 55.0075 21.8337 54.828C21.9078 54.6486 21.9455 54.4562 21.9444 54.2621C21.9445 53.9685 21.8577 53.6815 21.6949 53.4372C21.532 53.1929 21.3005 53.0023 21.0295 52.8895C20.7585 52.7767 20.4601 52.7467 20.172 52.8032C19.8839 52.8598 19.6191 53.0005 19.4109 53.2074L17.1766 55.4477C17.0385 55.5842 16.9291 55.7469 16.8549 55.9263C16.7807 56.1058 16.7432 56.2982 16.7446 56.4924C16.743 56.6878 16.7802 56.8815 16.854 57.0623C16.9279 57.2432 17.0369 57.4076 17.1749 57.5459C17.3128 57.6843 17.4768 57.7939 17.6574 57.8683C17.838 57.9428 18.0316 57.9806 18.2269 57.9797C18.6197 57.9777 18.9963 57.8227 19.2767 57.5477L21.5119 55.3075L21.5124 55.3069ZM25.5922 58.2203L22.7703 61.0328H22.7691C22.5621 61.2404 22.2981 61.3819 22.0106 61.4395C21.7231 61.4971 21.425 61.4681 21.1539 61.3563C20.8829 61.2445 20.6511 61.0548 20.4878 60.8113C20.3245 60.5678 20.2371 60.2813 20.2366 59.9881C20.236 59.5931 20.3917 59.214 20.6696 58.9334L22.9037 56.7032L24.7573 54.8447C25.0368 54.568 25.4143 54.4127 25.8076 54.4127C26.201 54.4127 26.5784 54.568 26.8579 54.8447C27.1365 55.125 27.2925 55.5042 27.2919 55.8994C27.2931 56.0937 27.2554 56.2863 27.1808 56.4658C27.1063 56.6453 26.9965 56.808 26.8579 56.9442L25.5932 58.2201L25.5922 58.2203ZM27.5782 63.2125H27.5843L29.084 61.7062C29.222 61.5696 29.3312 61.4068 29.4054 61.2274C29.4796 61.0479 29.5172 60.8555 29.516 60.6614C29.5175 60.4661 29.4803 60.2726 29.4064 60.0918C29.3325 59.9111 29.2235 59.7469 29.0857 59.6086C28.9478 59.4703 28.7839 59.3608 28.6035 59.2864C28.423 59.2119 28.2295 59.1741 28.0343 59.175C27.8395 59.1733 27.6463 59.2107 27.4662 59.2849C27.2861 59.3591 27.1226 59.4686 26.9855 59.607L24.1613 62.4295C23.8851 62.7089 23.7299 63.0857 23.7293 63.4787C23.7287 63.8716 23.8828 64.2489 24.1582 64.5291L24.1662 64.5391C24.446 64.811 24.821 64.9624 25.2111 64.961C25.4062 64.9625 25.5996 64.9251 25.78 64.8509C25.9604 64.7767 26.1242 64.6673 26.2618 64.529L27.5779 63.2129L27.5782 63.2125ZM28.9766 64.5989C29.2572 64.3254 29.6345 64.1738 30.0263 64.1769C30.4181 64.1801 30.7929 64.3377 31.0691 64.6156C31.3454 64.8936 31.5007 65.2693 31.5015 65.6611C31.5023 66.053 31.3483 66.4293 31.0732 66.7083L29.7551 68.0242C29.4756 68.301 29.0982 68.4562 28.7048 68.4562C28.3115 68.4562 27.9341 68.301 27.6546 68.0242C27.3769 67.7435 27.2216 67.3644 27.2226 66.9695C27.2212 66.7754 27.2587 66.5829 27.3329 66.4035C27.4071 66.2241 27.5165 66.0613 27.6546 65.9248L28.9765 64.5987L28.9766 64.5989ZM53.7671 34.4614L49.5905 35.4157C49.4615 35.4441 49.3281 35.4475 49.1978 35.4258L36.2957 33.2659C36.1489 33.242 35.9987 33.2488 35.8547 33.286C35.7147 33.3282 35.5855 33.4001 35.476 33.497L27.0301 40.9913L27.0633 49.0081C27.5207 49.2208 28.0353 49.2773 28.528 49.1688C29.0735 49.018 29.6219 48.6362 30.1705 48.0034C30.1936 47.9732 30.2156 47.9532 30.2408 47.923H30.2398C30.6386 47.5513 30.9611 46.9887 31.2052 46.2453C31.5072 45.2573 31.6784 44.2339 31.7146 43.2014C31.7183 43.1264 31.7315 43.0522 31.7538 42.9805C31.9699 42.248 32.4115 41.6024 33.0156 41.1353C33.6198 40.6683 34.3558 40.4036 35.1191 40.3789C35.2524 40.3743 35.3853 40.3969 35.5097 40.4452C35.634 40.4936 35.7472 40.5667 35.8425 40.6601L51.3903 55.9298L58.8143 50.2236L53.7671 34.4614ZM55.3474 32.9545L54.8993 31.558L61.4032 29.4786L67.6437 48.9577L61.1378 51.0468L55.3722 33.0343C55.3652 33.0142 55.3571 32.9841 55.3472 32.9539L55.3474 32.9545ZM12.8728 49.5405L21.3175 35.0842L24.3112 36.6513C24.4493 36.7343 24.6055 36.7826 24.7663 36.792L28.5798 36.9928L25.3971 39.8158C25.291 39.908 25.2064 40.0223 25.1493 40.1508C25.0922 40.2792 25.064 40.4186 25.0667 40.5592L25.1018 49.2288C25.1023 49.5305 25.1864 49.8262 25.345 50.0829C25.5056 50.3434 25.7374 50.5525 26.0131 50.6856C27.0367 51.1979 28.0393 51.3184 29.0198 51.0674C29.947 50.8262 30.813 50.2435 31.6177 49.3294C32.2456 48.7265 32.7328 47.9027 33.0744 46.8685C33.4159 45.7562 33.6154 44.6052 33.6681 43.4428C33.7774 43.145 33.9682 42.884 34.2187 42.6894C34.3936 42.5529 34.5946 42.4537 34.8093 42.398L52.0499 59.3356C52.0672 59.3557 52.0879 59.3727 52.1111 59.3858C52.3939 59.6552 52.5598 60.0248 52.5731 60.4153C52.5864 60.8057 52.446 61.1857 52.1822 61.4738C51.9183 61.7619 51.552 61.935 51.1619 61.9559C50.7719 61.9769 50.3891 61.844 50.0959 61.5858L41.0765 53.5089C40.9812 53.4214 40.8694 53.3536 40.7476 53.3096C40.6259 53.2656 40.4966 53.2461 40.3673 53.2524C40.238 53.2586 40.1113 53.2905 39.9944 53.346C39.8774 53.4016 39.7727 53.4798 39.6862 53.5762C39.5998 53.6725 39.5332 53.785 39.4906 53.9072C39.4479 54.0294 39.4298 54.1589 39.4375 54.2881C39.4452 54.4173 39.4784 54.5438 39.5352 54.6601C39.5921 54.7764 39.6715 54.8802 39.7687 54.9656L47.4921 61.8772C47.7838 62.1452 47.9593 62.5165 47.9814 62.9119C47.994 63.1066 47.9675 63.3019 47.9035 63.4862C47.8396 63.6705 47.7395 63.8402 47.609 63.9853C47.4785 64.1304 47.3204 64.2479 47.1439 64.331C46.9673 64.4141 46.776 64.461 46.581 64.4691C46.3858 64.483 46.1899 64.4573 46.0049 64.3934C45.82 64.3295 45.6499 64.2288 45.505 64.0974L44.2753 63.0024H44.2774C44.2448 62.9653 44.2084 62.9316 44.1689 62.902L37.0947 56.5734C36.9995 56.4852 36.8876 56.4169 36.7657 56.3724C36.6438 56.3279 36.5143 56.308 36.3846 56.314C36.255 56.32 36.1278 56.3517 36.0105 56.4073C35.8932 56.4629 35.7882 56.5413 35.7015 56.6379C35.6148 56.7345 35.5481 56.8473 35.5054 56.9699C35.4628 57.0924 35.4449 57.2223 35.4528 57.3518C35.4608 57.4814 35.4944 57.608 35.5518 57.7245C35.6091 57.8409 35.6891 57.9448 35.7869 58.03L42.8633 64.3691C42.8713 64.3791 42.8784 64.3892 42.8875 64.3892H42.8885L42.9307 64.4293C43.2124 64.687 43.3854 65.0422 43.4147 65.4228C43.444 65.8035 43.3273 66.181 43.0883 66.4788L43.0783 66.4887H43.0793L43.0442 66.529C42.788 66.8136 42.4323 66.9889 42.0505 67.0188C41.6688 67.0488 41.2901 66.9309 40.9927 66.6897L40.9827 66.6797L40.9405 66.6495L40.2644 66.0366C40.2554 66.0266 40.2484 66.0266 40.2404 66.0167H40.2392L34.1384 60.5515C33.9439 60.3781 33.6885 60.2891 33.4283 60.304C33.1681 60.3189 32.9245 60.4365 32.7511 60.631C32.5777 60.8255 32.4886 61.0809 32.5035 61.3411C32.5184 61.6012 32.6361 61.8448 32.8306 62.0183L38.8493 67.4029H38.8473C38.8753 67.4333 38.9067 67.4602 38.9409 67.4832C39.2048 67.7475 39.3613 68.1003 39.38 68.4733C39.3988 68.8464 39.2784 69.2131 39.0422 69.5025H39.0403C39.0112 69.5327 38.9841 69.5628 38.9589 69.5929C38.6898 69.8648 38.3269 70.0235 37.9446 70.0365C37.5624 70.0496 37.1895 69.9161 36.9025 69.6632L33.3703 66.4991C33.4391 66.2232 33.4742 65.9398 33.4748 65.6554C33.4766 64.7488 33.1194 63.8783 32.4813 63.2342L32.4521 63.2042C32.0615 62.8074 31.576 62.517 31.0417 62.3604C31.3313 61.8414 31.4838 61.257 31.4846 60.6626C31.4856 60.2094 31.397 59.7604 31.2239 59.3414C31.0509 58.9225 30.7967 58.5419 30.4761 58.2215C30.0549 57.7966 29.5282 57.4914 28.95 57.3374C29.1535 56.8858 29.259 56.3962 29.2594 55.9008C29.2594 55.2587 29.0805 54.6293 28.7427 54.0831C28.405 53.537 27.9218 53.0958 27.3473 52.8089C26.7728 52.522 26.1298 52.4009 25.4903 52.4591C24.8508 52.5172 24.2402 52.7524 23.7269 53.1382C23.5585 52.6414 23.2764 52.1907 22.9031 51.8221C22.583 51.5005 22.2025 51.2454 21.7835 51.0713C21.3645 50.8971 20.9152 50.8075 20.4615 50.8075C20.0077 50.8075 19.5584 50.8971 19.1394 51.0713C18.7204 51.2454 18.3399 51.5005 18.0198 51.8221L16.5179 53.3191L15.199 51.1089C15.111 50.9626 14.9868 50.8415 14.8383 50.7573L12.8722 49.5417L12.8728 49.5405ZM18.2691 59.9484H18.2269C17.3109 59.9478 16.4327 59.5834 15.7854 58.9353C15.1381 58.2872 14.7747 57.4085 14.7752 56.4925C14.7752 55.933 14.9099 55.3817 15.1679 54.8852L13.6374 52.3132L11.8848 51.2382L11.8215 51.3488C11.6007 51.717 11.2446 51.9842 10.8293 52.093C10.414 52.2019 9.97262 52.1439 9.59959 51.9314L3.11411 48.1441C2.74301 47.9238 2.47317 47.5667 2.36261 47.1496C2.30818 46.9445 2.29471 46.7306 2.32299 46.5203C2.35127 46.31 2.42074 46.1073 2.52742 45.9239C5.96444 39.7857 9.76863 33.7884 13.1954 27.6609C13.415 27.2906 13.7703 27.0204 14.1858 26.9076C14.3917 26.8535 14.6063 26.8407 14.8172 26.87C15.0281 26.8993 15.2311 26.9701 15.4144 27.0783H15.4175L21.9043 30.8656C22.2745 31.0841 22.5434 31.4399 22.6527 31.8557C22.762 32.2714 22.7028 32.7135 22.4879 33.0858L22.308 33.3971L25.0768 34.8439L30.6763 35.1351L34.1754 32.031C34.5028 31.7364 34.8928 31.52 35.3161 31.3982C35.7393 31.2764 36.1847 31.2524 36.6186 31.3278L49.3419 33.4576L53.1654 32.5836L52.9263 31.8302C52.7958 31.4209 52.8327 30.9767 53.0288 30.5946C53.225 30.2124 53.5645 29.9236 53.9731 29.7911L61.1288 27.5006C61.5391 27.3757 61.9815 27.4117 62.3663 27.6011C62.5564 27.6993 62.7251 27.8342 62.8627 27.998C63.0003 28.1618 63.104 28.3513 63.1679 28.5554L69.6164 48.6877C69.7483 49.1001 69.7115 49.548 69.514 49.9334C69.4164 50.1215 69.2825 50.2885 69.12 50.4247C68.9576 50.5609 68.7699 50.6637 68.5676 50.7271L61.4129 53.0164C61.0435 53.1363 60.6434 53.1189 60.2858 52.9676C59.9282 52.8163 59.6371 52.5412 59.4659 52.1927L52.8034 57.3255L53.4354 57.9383C53.9321 58.3989 54.2824 58.9955 54.4425 59.6537C54.6025 60.312 54.5654 61.0028 54.3357 61.64C54.1059 62.2773 53.6937 62.8329 53.1504 63.2376C52.6072 63.6422 51.9568 63.8781 51.2804 63.9157C50.802 63.946 50.3226 63.8741 49.8742 63.7048C49.7518 64.2962 49.4736 64.8442 49.0684 65.292C48.6096 65.8085 48.0054 66.1741 47.335 66.3408C46.6647 66.5076 45.9596 66.4677 45.3123 66.2263C45.1994 66.7896 44.9453 67.315 44.5739 67.7532C44.547 67.7994 44.5119 67.8402 44.4704 67.8737H44.4684C43.8601 68.5323 43.0197 68.9286 42.1246 68.9789C41.8567 68.9923 41.5882 68.9755 41.324 68.9287C41.2476 69.6426 40.9477 70.3141 40.4671 70.8474L40.4299 70.8876H40.4329C40.4229 70.9027 40.4107 70.9163 40.3968 70.9278C39.7777 71.5768 38.9305 71.9595 38.0343 71.9951C37.1382 72.0307 36.2633 71.7164 35.5947 71.1187L32.3499 68.2153L31.1474 69.4106C30.6648 69.8941 30.0496 70.2235 29.3796 70.3571C28.7097 70.4907 28.0152 70.4224 27.384 70.161C26.7529 69.8996 26.2136 69.4568 25.8343 68.8886C25.455 68.3205 25.2528 67.6525 25.2534 66.9694V66.9293H25.2112C24.7582 66.9311 24.3092 66.8433 23.8903 66.6709C23.4713 66.4985 23.0906 66.2449 22.7701 65.9247L22.766 65.9146C22.4467 65.5954 22.1935 65.2164 22.021 64.7992C21.8484 64.382 21.7599 63.9349 21.7604 63.4834V63.4332H21.7202C21.2669 63.4351 20.8177 63.3474 20.3984 63.175C19.9791 63.0026 19.598 62.749 19.2772 62.4288C18.9563 62.1086 18.7018 61.7281 18.5286 61.3092C18.3553 60.8903 18.2665 60.4412 18.2674 59.9879L18.2684 59.9477L18.2691 59.9484ZM36.0019 0.00348527C32.5398 0.00518396 29.1854 1.20722 26.5102 3.4048C23.835 5.60238 22.0045 8.65954 21.3305 12.0554C20.6566 15.4513 21.1809 18.9758 22.8142 22.0284C24.4475 25.081 27.0887 27.473 30.2877 28.7966C33.4868 30.1203 37.0459 30.2938 40.3585 29.2876C43.6712 28.2814 46.5325 26.1578 48.455 23.2785C50.3775 20.3992 51.2422 16.9424 50.9018 13.4971C50.5614 10.0518 49.0369 6.83106 46.5882 4.38367C45.1983 2.99338 43.5478 1.89087 41.7313 1.13925C39.9148 0.38764 37.9678 0.00168547 36.0019 0.00348527ZM43.7957 25.3798C43.8025 25.3095 43.8097 25.2392 43.8146 25.1588C43.8287 24.9679 43.8377 24.767 43.8377 24.556C43.8421 23.5244 43.6426 22.502 43.2509 21.5476C42.8591 20.5932 42.2827 19.7255 41.5547 18.9945C40.8267 18.2634 39.9615 17.6833 39.0088 17.2875C38.0561 16.8917 37.0345 16.6879 36.0029 16.6879C34.9712 16.6879 33.9496 16.8917 32.9969 17.2875C32.0442 17.6833 31.179 18.2634 30.451 18.9945C29.723 19.7255 29.1466 20.5932 28.7548 21.5476C28.3631 22.502 28.1636 23.5244 28.168 24.556C28.168 24.767 28.1754 24.9679 28.1901 25.1588C28.1961 25.2392 28.2012 25.3095 28.2082 25.3798C30.4582 27.0624 33.1924 27.9717 36.0019 27.9717C38.8115 27.9717 41.5456 27.0624 43.7957 25.3798ZM38.9212 7.69877C39.5996 8.37432 40.0226 9.26426 40.1182 10.2169C40.2139 11.1695 39.9761 12.1257 39.4455 12.9226C38.9148 13.7195 38.1242 14.3077 37.2084 14.5868C36.2927 14.866 35.3084 14.8188 34.4235 14.4534C33.5386 14.088 32.8078 13.427 32.3558 12.583C31.9038 11.7391 31.7585 10.7644 31.9447 9.82534C32.1309 8.88624 32.6371 8.0408 33.377 7.43319C34.1168 6.82558 35.0446 6.49341 36.0019 6.49333C37.096 6.49439 38.1453 6.92765 38.9213 7.69877H38.9212ZM36.0019 4.5243C34.7961 4.52434 33.6175 4.88196 32.6149 5.55193C31.6124 6.22191 30.8311 7.17413 30.3697 8.28819C29.9084 9.40224 29.7878 10.6281 30.0232 11.8107C30.2586 12.9933 30.8394 14.0795 31.6922 14.932C31.8866 15.124 32.0915 15.3051 32.306 15.4745C31.0926 15.9639 29.9915 16.6954 29.0701 17.6244C27.4692 19.2202 26.4718 21.3222 26.2482 23.5715C24.5938 21.6945 23.5161 19.3801 23.1444 16.9058C22.7727 14.4316 23.1227 11.9026 24.1525 9.62236C25.1822 7.34208 26.848 5.40733 28.95 4.05021C31.052 2.69308 33.5008 1.97122 36.0029 1.97122C38.5049 1.97122 40.9537 2.69308 43.0557 4.05021C45.1577 5.40733 46.8235 7.34208 47.8532 9.62236C48.883 11.9026 49.233 14.4316 48.8613 16.9058C48.4896 19.3801 47.4119 21.6945 45.7575 23.5715C45.5342 21.3219 44.5364 19.2197 42.9347 17.6244C42.0134 16.6953 40.9124 15.9638 39.699 15.4745C39.914 15.3054 40.1193 15.1243 40.3138 14.932C41.1659 14.079 41.746 12.9927 41.9808 11.8102C42.2157 10.6277 42.0948 9.40206 41.6333 8.28825C41.1719 7.17445 40.3906 6.22242 39.3883 5.55247C38.386 4.88253 37.2076 4.52473 36.0019 4.5243ZM20.6143 32.392L14.7213 28.9466L4.40209 46.6172L10.2957 50.0528L20.6143 32.392Z" fill="url(#paint4_linear_82_6028)"/>
<defs>
<linearGradient id="paint0_linear_82_6028" x1="40.869" y1="6.47223" x2="30.5252" y2="7.31374" gradientUnits="userSpaceOnUse">
<stop stop-color="#E21D1D"/>
<stop offset="1" stop-color="#F2F2F2"/>
</linearGradient>
<linearGradient id="paint1_linear_82_6028" x1="45.2248" y1="16.6777" x2="25.7894" y2="18.8724" gradientUnits="userSpaceOnUse">
<stop stop-color="#E21D1D"/>
<stop offset="1" stop-color="#F2F2F2"/>
</linearGradient>
<linearGradient id="paint2_linear_82_6028" x1="68.7787" y1="29.4656" x2="52.7957" y2="30.2346" gradientUnits="userSpaceOnUse">
<stop stop-color="#E21D1D"/>
<stop offset="1" stop-color="#F2F2F2"/>
</linearGradient>
<linearGradient id="paint3_linear_82_6028" x1="22.0535" y1="28.9323" x2="1.75976" y2="30.2009" gradientUnits="userSpaceOnUse">
<stop stop-color="#E21D1D"/>
<stop offset="1" stop-color="#F2F2F2"/>
</linearGradient>
<linearGradient id="paint4_linear_82_6028" x1="75.6145" y1="0.00350235" x2="-8.43338" y2="6.40336" gradientUnits="userSpaceOnUse">
<stop stop-color="#E21D1D"/>
<stop offset="1" stop-color="#F2F2F2"/>
</linearGradient>
</defs>
</svg>
