<svg width="72" height="72" viewBox="0 0 72 72" fill="none" xmlns="http://www.w3.org/2000/svg">
<path d="M36.7867 35.2709C36.7767 35.2604 36.7738 35.2465 36.7636 35.2362L26.5647 25.0372V18.6287C26.5647 18.154 26.3762 17.7003 26.0412 17.3651L15.3185 6.52345C14.809 6.01401 14.0393 5.85865 13.3708 6.13613C12.7024 6.41182 12.2678 7.06459 12.2678 7.78706V13.1484H6.78733C6.06498 13.1483 5.41221 13.5828 5.13651 14.2513C4.85904 14.9197 5.01261 15.6876 5.52396 16.199L16.3658 27.0407C16.7009 27.3758 17.1546 27.5643 17.6293 27.5643H24.0377L34.2366 37.7632C34.2469 37.7735 34.2608 37.7763 34.2713 37.7863C34.9671 38.4504 36.024 38.4592 36.7291 37.7863C37.4715 37.0777 37.4549 35.9709 36.7867 35.2709Z" fill="url(#paint0_linear_82_5996)"/>
<path d="M35.4998 6C30.927 6 26.6035 7.16341 22.7103 8.98066L28.1924 14.4628C30.4933 13.6977 32.9455 13.2676 35.4999 13.2676C48.3098 13.2675 58.7321 23.6899 58.7321 36.4998C58.7321 49.3097 48.3098 59.7321 35.4998 59.7321C22.6898 59.7321 12.2675 49.3098 12.2675 36.4998C12.2675 33.9454 12.6977 31.4931 13.4627 29.1923L7.98054 23.7101C6.16353 27.6035 5 31.927 5 36.4998C5 53.252 18.7475 66.9997 35.4998 66.9997C52.252 66.9997 65.9997 53.252 65.9997 36.4998C65.9997 19.7475 52.2523 6 35.4998 6Z" fill="url(#paint1_linear_82_5996)"/>
<path d="M35.5018 20.4159C33.6129 20.4159 31.8258 20.8031 30.1405 21.4039V23.5573L34.272 27.6887C34.6777 27.632 35.0807 27.5643 35.5018 27.5643C40.4287 27.5643 44.4374 31.5731 44.4374 36.4999C44.4374 41.4267 40.4287 45.4354 35.5018 45.4354C30.575 45.4354 26.5663 41.4267 26.5663 36.4999C26.5663 36.0786 26.634 35.6757 26.6907 35.27L22.5594 31.1384H20.406C19.8052 32.8237 19.418 34.6108 19.418 36.4998C19.418 45.369 26.6328 52.5836 35.5018 52.5836C44.3709 52.5836 51.5858 45.369 51.5858 36.4998C51.5858 27.6306 44.371 20.4159 35.5018 20.4159Z" fill="url(#paint2_linear_82_5996)"/>
<defs>
<linearGradient id="paint0_linear_82_5996" x1="40.1236" y1="6.00001" x2="-0.114081" y2="9.2734" gradientUnits="userSpaceOnUse">
<stop stop-color="#E21D1D"/>
<stop offset="1" stop-color="#F2F2F2"/>
</linearGradient>
<linearGradient id="paint1_linear_82_5996" x1="71.3589" y1="6.00002" x2="-4.66199" y2="12.1846" gradientUnits="userSpaceOnUse">
<stop stop-color="#E21D1D"/>
<stop offset="1" stop-color="#F2F2F2"/>
</linearGradient>
<linearGradient id="paint2_linear_82_5996" x1="54.412" y1="20.4159" x2="14.3228" y2="23.6773" gradientUnits="userSpaceOnUse">
<stop stop-color="#E21D1D"/>
<stop offset="1" stop-color="#F2F2F2"/>
</linearGradient>
</defs>
</svg>
