<svg width="72" height="72" viewBox="0 0 72 72" fill="none" xmlns="http://www.w3.org/2000/svg">
<g clip-path="url(#clip0_81_5978)">
<path fill-rule="evenodd" clip-rule="evenodd" d="M52.8984 35.2321C48.8023 40.2392 46.2988 46.3578 45.7104 52.8001H26.2944C25.7016 46.3552 23.1988 40.234 19.1064 35.2201C16.0732 31.7941 14.3998 27.3758 14.4024 22.8001C14.3735 11.3445 23.2927 1.85876 34.7283 1.18307C46.164 0.50739 56.1382 8.87682 57.4584 20.2561C58.1418 25.6698 56.4829 31.1179 52.8984 35.2321Z" fill="url(#paint0_linear_81_5978)" fill-opacity="0.2"/>
<path fill-rule="evenodd" clip-rule="evenodd" d="M57.457 20.2561C56.2503 10.3115 48.3876 2.48841 38.437 1.33209C37.0211 1.18198 35.594 1.16953 34.1758 1.29489C34.3978 1.31289 34.6138 1.30809 34.837 1.33209C44.7876 2.48841 52.6503 10.3115 53.857 20.2561C54.5404 25.6698 52.8815 31.1179 49.297 35.2321C45.2009 40.2392 42.6974 46.3578 42.109 52.8001H45.709C46.2974 46.3578 48.8009 40.2392 52.897 35.2321C56.4815 31.1179 58.1404 25.6698 57.457 20.2561Z" fill="url(#paint1_linear_81_5978)" fill-opacity="0.6"/>
<path fill-rule="evenodd" clip-rule="evenodd" d="M45.709 52.8C45.637 53.592 45.601 54.3841 45.601 55.1881V62.4C45.597 63.7239 44.5248 64.7961 43.201 64.8H28.801C27.4771 64.7961 26.4049 63.7239 26.401 62.4V55.2C26.401 54.396 26.365 53.592 26.293 52.8H45.709Z" fill="url(#paint2_linear_81_5978)"/>
<path fill-rule="evenodd" clip-rule="evenodd" d="M28.9102 64.8C29.4926 68.2629 32.4906 70.7989 36.0022 70.7989C39.5137 70.7989 42.5118 68.2629 43.0942 64.8H28.9102Z" fill="#F7F7F7" fill-opacity="0.2"/>
<path d="M58.6483 20.1144C57.2429 8.11384 46.7197 -0.706531 34.6581 0.006251C22.5965 0.719033 13.1854 10.7174 13.2032 22.8C13.2032 27.6708 14.6875 31.6092 18.1663 35.9712C22.1006 40.7656 24.5137 46.6255 25.0963 52.8C25.1635 53.5956 25.2032 54.3936 25.2032 55.2V62.4C25.2087 64.0468 26.3309 65.4799 27.9284 65.88C28.9441 69.4993 32.2441 72.0005 36.0032 72.0005C39.7622 72.0005 43.0622 69.4993 44.078 65.88C45.6754 65.4799 46.7976 64.0468 46.8032 62.4V55.182C46.8032 54.3888 46.8428 53.598 46.9088 52.8096V52.8C47.4884 46.6294 49.8996 40.7731 53.8328 35.9832C57.6143 31.6151 59.3645 25.8474 58.6483 20.1144ZM44.4032 55.182V57.6H27.6032V55.2C27.6032 54.798 27.566 54.4008 27.5504 54H44.4559C44.4403 54.3948 44.4032 54.7872 44.4032 55.182ZM36.0032 69.6C33.6215 69.6047 31.4666 68.1882 30.5264 66H41.4799C40.5397 68.1882 38.3848 69.6047 36.0032 69.6ZM44.4032 62.4C44.4032 63.0628 43.8659 63.6 43.2032 63.6H28.8032C28.1404 63.6 27.6032 63.0628 27.6032 62.4V60H44.4032V62.4ZM44.6432 51.6H27.3631C26.5821 45.3165 24.045 39.3805 20.0432 34.4736C16.8895 30.5208 15.6031 27.138 15.6031 22.8C15.608 17.0021 18.0753 11.4792 22.3904 7.60681C26.7161 3.69911 32.5173 1.84732 38.3072 2.52601C47.7045 3.60882 55.132 10.9966 56.2651 20.388C56.9191 25.4849 55.3523 30.6171 51.9632 34.4796C47.9595 39.3832 45.4221 45.3177 44.6432 51.6Z" fill="url(#paint3_linear_81_5978)"/>
<path fill-rule="evenodd" clip-rule="evenodd" d="M46.0188 14.6904L30.0588 28.3704L26.0436 24.3564C25.7424 24.0444 25.2962 23.9193 24.8766 24.0292C24.4571 24.139 24.1294 24.4666 24.0196 24.8862C23.9098 25.3057 24.0349 25.7519 24.3468 26.0532L29.1468 30.8532C29.5901 31.2959 30.2994 31.323 30.7752 30.9156L47.5752 16.5156C47.9196 16.2425 48.0871 15.803 48.0119 15.37C47.9366 14.9369 47.6307 14.5797 47.2144 14.4388C46.7981 14.2978 46.3381 14.3957 46.0152 14.694L46.0188 14.6904Z" fill="url(#paint4_linear_81_5978)"/>
<path fill-rule="evenodd" clip-rule="evenodd" d="M3.60156 21.6C3.60156 22.2628 4.13882 22.8 4.80156 22.8H8.40156C9.0643 22.8 9.60156 22.2628 9.60156 21.6C9.60156 20.9373 9.0643 20.4 8.40156 20.4H4.80156C4.13882 20.4 3.60156 20.9373 3.60156 21.6Z" fill="url(#paint5_linear_81_5978)"/>
<path fill-rule="evenodd" clip-rule="evenodd" d="M62.4023 21.6C62.4023 22.2628 62.9396 22.8 63.6023 22.8H67.2023C67.8651 22.8 68.4023 22.2628 68.4023 21.6C68.4023 20.9373 67.8651 20.4 67.2023 20.4H63.6023C62.9396 20.4 62.4023 20.9373 62.4023 21.6Z" fill="url(#paint6_linear_81_5978)"/>
<path fill-rule="evenodd" clip-rule="evenodd" d="M11.016 32.5608L7.89596 34.3608C7.52161 34.5736 7.29001 34.9707 7.28907 35.4013C7.28812 35.8319 7.51797 36.23 7.89138 36.4445C8.26478 36.659 8.72447 36.657 9.09596 36.4392L12.216 34.6392C12.5903 34.4263 12.8219 34.0292 12.8228 33.5986C12.8238 33.168 12.5939 32.7699 12.2205 32.5554C11.8471 32.341 11.3874 32.343 11.016 32.5608Z" fill="url(#paint7_linear_81_5978)"/>
<path fill-rule="evenodd" clip-rule="evenodd" d="M62.9027 6.76078L59.7827 8.56078C59.4083 8.77361 59.1767 9.17071 59.1758 9.60132C59.1748 10.0319 59.4047 10.43 59.7781 10.6445C60.1515 10.859 60.6112 10.857 60.9827 10.6392L64.1027 8.83918C64.6717 8.50557 64.8648 7.7752 64.535 7.20395C64.2052 6.63269 63.4761 6.43475 62.9027 6.76078Z" fill="url(#paint8_linear_81_5978)"/>
<path fill-rule="evenodd" clip-rule="evenodd" d="M59.7866 34.6392L62.9066 36.4392C63.48 36.7652 64.2091 36.5673 64.5389 35.996C64.8687 35.4248 64.6756 34.6944 64.1066 34.3608L60.9866 32.5608C60.6151 32.343 60.1554 32.341 59.782 32.5554C59.4086 32.7699 59.1787 33.168 59.1797 33.5986C59.1806 34.0292 59.4122 34.4263 59.7866 34.6392Z" fill="url(#paint9_linear_81_5978)"/>
<path fill-rule="evenodd" clip-rule="evenodd" d="M12.216 8.56085L9.09596 6.76085C8.72447 6.54307 8.26478 6.54103 7.89138 6.75551C7.51797 6.96999 7.28812 7.36809 7.28907 7.79871C7.29001 8.22932 7.52161 8.62642 7.89596 8.83925L11.016 10.6393C11.1982 10.745 11.4052 10.8005 11.616 10.8001C12.1591 10.8 12.6344 10.4352 12.775 9.91064C12.9156 9.38604 12.6863 8.83243 12.216 8.56085Z" fill="url(#paint10_linear_81_5978)"/>
</g>
<defs>
<linearGradient id="paint0_linear_81_5978" x1="24.0024" y1="8.5" x2="53.5024" y2="18.5" gradientUnits="userSpaceOnUse">
<stop stop-color="#F3E9E9"/>
<stop offset="1" stop-color="#F3E9E9" stop-opacity="0"/>
</linearGradient>
<linearGradient id="paint1_linear_81_5978" x1="59.6665" y1="1.20935" x2="33.9607" y2="3.28551" gradientUnits="userSpaceOnUse">
<stop stop-color="#BA1313"/>
<stop offset="1" stop-color="#F2F2F2"/>
</linearGradient>
<linearGradient id="paint2_linear_81_5978" x1="47.4148" y1="52.8001" x2="23.4723" y2="55.9516" gradientUnits="userSpaceOnUse">
<stop stop-color="#E21D1D"/>
<stop offset="1" stop-color="#F2F2F2"/>
</linearGradient>
<linearGradient id="paint3_linear_81_5978" x1="62.8122" y1="-0.0340343" x2="5.75515" y2="2.90451" gradientUnits="userSpaceOnUse">
<stop stop-color="#E21D1D"/>
<stop offset="1" stop-color="#F2F2F2"/>
</linearGradient>
<linearGradient id="paint4_linear_81_5978" x1="44.5012" y1="23" x2="11.4712" y2="19.7118" gradientUnits="userSpaceOnUse">
<stop stop-color="#E21D1D"/>
<stop offset="1" stop-color="#F2F2F2"/>
</linearGradient>
<linearGradient id="paint5_linear_81_5978" x1="10.1287" y1="20.4" x2="2.90069" y2="21.8701" gradientUnits="userSpaceOnUse">
<stop stop-color="#E21D1D"/>
<stop offset="1" stop-color="#F2F2F2"/>
</linearGradient>
<linearGradient id="paint6_linear_81_5978" x1="68.9295" y1="20.4" x2="61.7015" y2="21.8701" gradientUnits="userSpaceOnUse">
<stop stop-color="#E21D1D"/>
<stop offset="1" stop-color="#F2F2F2"/>
</linearGradient>
<linearGradient id="paint7_linear_81_5978" x1="13.309" y1="32.396" x2="6.44546" y2="33.1303" gradientUnits="userSpaceOnUse">
<stop stop-color="#E21D1D"/>
<stop offset="1" stop-color="#F2F2F2"/>
</linearGradient>
<linearGradient id="paint8_linear_81_5978" x1="65.181" y1="6.60376" x2="58.3342" y2="7.33582" gradientUnits="userSpaceOnUse">
<stop stop-color="#E21D1D"/>
<stop offset="1" stop-color="#F2F2F2"/>
</linearGradient>
<linearGradient id="paint9_linear_81_5978" x1="65.1849" y1="32.396" x2="58.3381" y2="33.1281" gradientUnits="userSpaceOnUse">
<stop stop-color="#E21D1D"/>
<stop offset="1" stop-color="#F2F2F2"/>
</linearGradient>
<linearGradient id="paint10_linear_81_5978" x1="13.3016" y1="6.59607" x2="6.44646" y2="7.32926" gradientUnits="userSpaceOnUse">
<stop stop-color="#E21D1D"/>
<stop offset="1" stop-color="#F2F2F2"/>
</linearGradient>
<clipPath id="clip0_81_5978">
<rect width="72" height="72" fill="white"/>
</clipPath>
</defs>
</svg>
